<?xml version="1.0" encoding="utf-8"?>
<svg id="master-artboard" viewBox="0 0 100 30" version="1.1" xmlns="http://www.w3.org/2000/svg" x="0px" y="0px" style="enable-background:new 0 0 1400 980;" width="100px" height="30px"><rect id="ee-background" x="0" y="0" width="100" height="30" style="fill: white; fill-opacity: 0; pointer-events: none;"/><defs><style id="ee-google-fonts">@import url(https://fonts.googleapis.com/css?family=Acme:400);</style></defs>























































































































<g transform="matrix(0.1424242379143834, 0, 0, 0.1457816356172164, -37.74757422678229, -10.682834589210046)"><g transform="matrix(1, 0, 0, 1, 0, 0)"><path class="st5" d="M382.7,170.6l61.4,60.6c4.6,4.6,7,9.1,7,13.4c0,3.1-1,5.7-2.9,7.6c-2,2-4.5,2.9-7.6,2.9&#10;&#9;&#9;c-4.3,0-8.4-1.9-12.4-5.8L377.4,202c-6.1-2.6-11.4-5.7-15.7-9.4c-2.9,3.3-8,10.1-15.5,20.4c-7.1,9.8-12.1,16.4-15,19.9&#10;&#9;&#9;c-7.2,7.9-13.2,13.6-18.1,16.9c-4.8,3.4-9.3,5.1-13.4,5.1c-3.9,0-7.1-0.9-9.5-2.8c-2.4-1.9-3.6-4.5-3.6-7.8&#10;&#9;&#9;c0-6.3,3.6-13.5,10.7-21.4c7.1-7.9,19.9-18.2,38.3-30.8c7.8-5.3,12.7-8.8,14.7-10.7L298,129.8c-7.9-7.7-11.9-15.4-11.9-23.2&#10;&#9;&#9;c0-3.6,1.2-6.7,3.6-9c2.4-2.4,5.3-3.6,8.8-3.6c4.1,0,7.9,1.7,11.3,5.1l62.4,61.3c1.4-1.1,4.5-4.1,9.4-8.8c-2.6-3.9-4-8.2-4-13&#10;&#9;&#9;c0-3.1,0.8-6,2.4-8.7c1.6-2.6,6-7.3,13.3-14c8.8-8.1,16.4-15.5,22.7-22l4.4,4.2l-25,24.9c-2.8,2.9-4.2,5.6-4.2,8.1&#10;&#9;&#9;c0,1.7,0.6,3.1,1.9,4.2c1.2,1.1,2.8,1.7,4.8,1.7c2.9,0,5.7-1.3,8.3-4l24.9-24.3l4.2,4.2L411.4,137c-3,3-4.5,6-4.5,9.1&#10;&#9;&#9;c0,1.9,0.6,3.4,1.8,4.6c1.2,1.2,2.6,1.8,4.3,1.8c2.7,0,5.5-1.4,8.2-4.1l25.1-24.4l4.4,4.2c-2.9,2.6-6.9,6.6-12.2,11.9&#10;&#9;&#9;C427.7,151,420,157.9,415.5,161c-4.5,3.1-8.3,4.6-11.3,4.6c-3.4,0-7.4-1.4-12-4.3L382.7,170.6z M381.2,178l-76.3-74.9&#10;&#9;&#9;c-2.1-2.3-4.3-3.4-6.5-3.4c-1.7,0-3.1,0.7-4.1,2.1c-1,1.4-1.5,3.1-1.5,5.3c0,5.8,2,10.8,6.1,14.9l67.9,67.1&#10;&#9;&#9;c3.1,3.1,6.3,4.6,9.4,4.6c2.3,0,4.2-0.8,5.8-2.4c1.6-1.6,2.3-3.5,2.3-5.7v-0.9C384.3,182.2,383.2,180,381.2,178" style="fill: rgb(228, 194, 43);" transform="matrix(1, 0, 0, 1, 0, 0)"/></g></g><path d="M 52.45487594604492 24.971155166625977 L 47.34487533569336 24.971155166625977 L 47.20487594604492 29.381155014038086 L 51.784873962402344 29.381155014038086 L 51.52487564086914 31.931154251098633 L 47.1348762512207 31.931154251098633 L 47.10487365722656 32.721153259277344 L 47.394874572753906 38.96115493774414 L 44.034873962402344 38.96115493774414 L 44.32487487792969 33.13115692138672 L 44.034873962402344 22.401155471801758 L 52.724876403808594 22.401155471801758 L 52.45487594604492 24.971155166625977 ZM 53.39190673828125 33.94115447998047 C 53.39190673828125 31.894489288330078 53.94524383544922 30.161155700683594 55.051910400390625 28.741153717041016 C 56.15190887451172 27.31448745727539 57.44190979003906 26.601154327392578 58.92190933227539 26.601154327392578 C 60.40190887451172 26.601154327392578 61.555240631103516 27.081153869628906 62.38190841674805 28.041154861450195 C 63.20857620239258 29.001155853271484 63.621910095214844 30.27448844909668 63.621910095214844 31.861154556274414 C 63.621910095214844 33.96782302856445 63.08857727050781 35.721153259277344 62.021907806396484 37.12115478515625 C 60.95524215698242 38.521156311035156 59.61524200439453 39.221153259277344 58.00190734863281 39.221153259277344 C 56.67524337768555 39.221153259277344 55.57524108886719 38.721153259277344 54.701908111572266 37.721153259277344 C 53.828575134277344 36.721153259277344 53.39190673828125 35.46115493774414 53.39190673828125 33.94115447998047 M 60.931907653808594 33.10115432739258 C 60.931907653808594 30.78115463256836 60.13857650756836 29.62115478515625 58.551910400390625 29.62115478515625 C 56.905242919921875 29.62115478515625 56.0819091796875 30.71115493774414 56.0819091796875 32.89115524291992 C 56.0819091796875 34.02449035644531 56.315242767333984 34.911155700683594 56.78190994262695 35.55115509033203 C 57.24190902709961 36.19115447998047 57.85190963745117 36.51115417480469 58.611907958984375 36.51115417480469 C 59.371910095214844 36.51115417480469 59.94857406616211 36.221153259277344 60.3419075012207 35.64115524291992 C 60.7352409362793 35.05448913574219 60.931907653808594 34.207820892333984 60.931907653808594 33.10115432739258 ZM 64.95885467529297 33.94115447998047 C 64.95885467529297 31.894489288330078 65.51219177246094 30.161155700683594 66.61885833740234 28.741153717041016 C 67.71885681152344 27.31448745727539 69.00885772705078 26.601154327392578 70.48885345458984 26.601154327392578 C 71.96885681152344 26.601154327392578 73.1221923828125 27.081153869628906 73.9488525390625 28.041154861450195 C 74.77552032470703 29.001155853271484 75.18885803222656 30.27448844909668 75.18885803222656 31.861154556274414 C 75.18885803222656 33.96782302856445 74.65552520751953 35.721153259277344 73.58885955810547 37.12115478515625 C 72.52218627929688 38.521156311035156 71.18218994140625 39.221153259277344 69.56885528564453 39.221153259277344 C 68.2421875 39.221153259277344 67.1421890258789 38.721153259277344 66.26885986328125 37.721153259277344 C 65.39552307128906 36.721153259277344 64.95885467529297 35.46115493774414 64.95885467529297 33.94115447998047 M 72.49885559082031 33.10115432739258 C 72.49885559082031 30.78115463256836 71.70552062988281 29.62115478515625 70.11885833740234 29.62115478515625 C 68.4721908569336 29.62115478515625 67.64885711669922 30.71115493774414 67.64885711669922 32.89115524291992 C 67.64885711669922 34.02449035644531 67.88218688964844 34.911155700683594 68.3488540649414 35.55115509033203 C 68.80885314941406 36.19115447998047 69.41885375976562 36.51115417480469 70.1788558959961 36.51115417480469 C 70.93885803222656 36.51115417480469 71.5155258178711 36.221153259277344 71.90885925292969 35.64115524291992 C 72.30219268798828 35.05448913574219 72.49885559082031 34.207820892333984 72.49885559082031 33.10115432739258 ZM 83.58580780029297 36.61115646362305 C 82.3391342163086 38.17782211303711 81.25914001464844 38.96115493774414 80.3458023071289 38.96115493774414 C 79.20580291748047 38.96115493774414 78.27246856689453 38.49782180786133 77.54580688476562 37.5711555480957 C 76.81913757324219 36.64448928833008 76.45580291748047 35.45115661621094 76.45580291748047 33.991153717041016 C 76.45580291748047 31.99115562438965 77.0124740600586 30.304489135742188 78.12580108642578 28.931156158447266 C 79.2391357421875 27.55115509033203 80.60247039794922 26.861154556274414 82.21580505371094 26.861154556274414 L 83.55580139160156 27.061155319213867 L 83.55580139160156 26.601154327392578 L 83.27580261230469 20.981155395507812 L 86.55580139160156 20.381155014038086 L 86.24580383300781 32.721153259277344 L 86.24580383300781 34.831153869628906 C 86.24580383300781 35.79115295410156 86.48580169677734 36.89448928833008 86.96580505371094 38.14115524291992 L 84.37580871582031 39.221153259277344 C 83.90913391113281 38.26115417480469 83.64580535888672 37.39115524291992 83.58580780029297 36.61115646362305 M 79.14580535888672 32.741153717041016 C 79.14580535888672 32.741153717041016 79.14580535888672 32.99782180786133 79.14580535888672 33.51115417480469 C 79.14580535888672 34.02449035644531 79.33247375488281 34.56782150268555 79.70580291748047 35.14115524291992 C 80.08580780029297 35.721153259277344 80.62913513183594 36.01115417480469 81.33580780029297 36.01115417480469 C 82.04914093017578 36.01115417480469 82.78913879394531 35.721153259277344 83.55580139160156 35.14115524291992 L 83.55580139160156 29.96115493774414 C 82.5958023071289 29.767822265625 81.88580322265625 29.671154022216797 81.4258041381836 29.671154022216797 C 80.70580291748047 29.671154022216797 80.14580535888672 29.92782211303711 79.74580383300781 30.44115447998047 C 79.3458023071289 30.954486846923828 79.14580535888672 31.721155166625977 79.14580535888672 32.741153717041016 ZM 98.72835540771484 22.401155471801758 C 100.26168823242188 22.401155471801758 101.47835540771484 22.747821807861328 102.37835693359375 23.44115447998047 C 103.27169036865234 24.141155242919922 103.7183609008789 25.07448959350586 103.7183609008789 26.241153717041016 C 103.7183609008789 28.11448860168457 102.95169067382812 29.417821884155273 101.4183578491211 30.151153564453125 C 103.49835968017578 30.87115478515625 104.53836059570312 32.20115661621094 104.53836059570312 34.14115524291992 C 104.53836059570312 35.59449005126953 103.91168975830078 36.80448913574219 102.65835571289062 37.771156311035156 C 101.41168975830078 38.737823486328125 99.84502410888672 39.221153259277344 97.95835876464844 39.221153259277344 C 96.96502685546875 39.221153259277344 95.48502349853516 39.13448715209961 93.51835632324219 38.96115493774414 L 93.80835723876953 33.13115692138672 L 93.51835632324219 22.401155471801758 L 98.72835540771484 22.401155471801758 M 98.4183578491211 31.831153869628906 L 96.4683609008789 31.831153869628906 L 96.44835662841797 32.721153259277344 L 96.61835479736328 36.63115692138672 C 97.54502868652344 36.71115493774414 98.2550277709961 36.751155853271484 98.74835968017578 36.751155853271484 C 99.59502410888672 36.751155853271484 100.2550277709961 36.54115295410156 100.72835540771484 36.12115478515625 C 101.20169067382812 35.694488525390625 101.4383544921875 35.07448959350586 101.4383544921875 34.26115417480469 C 101.4383544921875 33.44115447998047 101.19835662841797 32.831153869628906 100.7183609008789 32.431156158447266 C 100.23835754394531 32.03115463256836 99.47169494628906 31.831153869628906 98.4183578491211 31.831153869628906 M 97.85836029052734 24.821155548095703 L 96.6883544921875 24.821155548095703 L 96.53836059570312 29.501155853271484 L 98.09835815429688 29.501155853271484 C 98.9183578491211 29.501155853271484 99.54502868652344 29.28115463256836 99.97835540771484 28.841156005859375 C 100.40502166748047 28.401153564453125 100.61836242675781 27.77448844909668 100.61836242675781 26.96115493774414 C 100.61836242675781 25.534488677978516 99.69835662841797 24.821155548095703 97.85836029052734 24.821155548095703 ZM 106.18708801269531 33.94115447998047 C 106.18708801269531 31.894489288330078 106.74042510986328 30.161155700683594 107.84709167480469 28.741153717041016 C 108.94709014892578 27.31448745727539 110.23709106445312 26.601154327392578 111.71708679199219 26.601154327392578 C 113.19709014892578 26.601154327392578 114.35042572021484 27.081153869628906 115.17709350585938 28.041154861450195 C 116.00375366210938 29.001155853271484 116.4170913696289 30.27448844909668 116.4170913696289 31.861154556274414 C 116.4170913696289 33.96782302856445 115.88375854492188 35.721153259277344 114.81709289550781 37.12115478515625 C 113.75042724609375 38.521156311035156 112.4104232788086 39.221153259277344 110.79708862304688 39.221153259277344 C 109.47042083740234 39.221153259277344 108.37042236328125 38.721153259277344 107.4970932006836 37.721153259277344 C 106.6237564086914 36.721153259277344 106.18708801269531 35.46115493774414 106.18708801269531 33.94115447998047 M 113.72708892822266 33.10115432739258 C 113.72708892822266 30.78115463256836 112.93375396728516 29.62115478515625 111.34709167480469 29.62115478515625 C 109.70042419433594 29.62115478515625 108.87709045410156 30.71115493774414 108.87709045410156 32.89115524291992 C 108.87709045410156 34.02449035644531 109.11042022705078 34.911155700683594 109.57708740234375 35.55115509033203 C 110.0370864868164 36.19115447998047 110.64708709716797 36.51115417480469 111.40708923339844 36.51115417480469 C 112.1670913696289 36.51115417480469 112.74375915527344 36.221153259277344 113.13709259033203 35.64115524291992 C 113.53042602539062 35.05448913574219 113.72708892822266 34.207820892333984 113.72708892822266 33.10115432739258 ZM 129.1840362548828 35.96115493774414 L 129.49403381347656 35.96115493774414 L 130.2640380859375 32.6711540222168 L 131.50404357910156 26.741153717041016 L 134.4340362548828 27.101154327392578 L 132.6840362548828 33.061153411865234 L 131.2240447998047 38.6711540222168 L 127.2840347290039 39.03115463256836 L 125.96403503417969 33.20115661621094 L 125.84403991699219 32.8211555480957 L 124.23403930664062 38.6711540222168 L 120.42403411865234 39.03115463256836 L 119.02404022216797 33.20115661621094 L 117.37403869628906 27.37115478515625 L 120.5140380859375 26.771156311035156 L 121.50403594970703 32.05115509033203 L 122.3640365600586 35.96115493774414 L 122.67404174804688 35.96115493774414 L 124.74403381347656 29.12115478515625 L 124.23403930664062 27.37115478515625 L 127.33403778076172 26.771156311035156 L 128.3440399169922 32.05115509033203 L 129.1840362548828 35.96115493774414 ZM 139.30642700195312 20.381155014038086 L 138.99642944335938 32.721153259277344 L 139.25643920898438 38.36115646362305 L 136.0164337158203 38.96115493774414 L 136.30642700195312 33.13115692138672 L 136.0164337158203 20.981155395507812 L 139.30642700195312 20.381155014038086 Z" transform="matrix(0.734573245048523, 0, 0, 0.734573245048523, -4.1563568115234375, -7.9203925132751465)" style="fill: rgb(228, 194, 43); white-space: pre; color: rgb(51, 51, 51);"/><path d="M 51.7768440246582 35.33853530883789 L 52.036842346191406 32.57853698730469 L 63.43684387207031 32.57853698730469 L 63.176841735839844 35.33853530883789 L 58.99684524536133 34.97853469848633 L 58.90684509277344 42.898536682128906 L 59.19684600830078 49.13853454589844 L 55.83684539794922 49.13853454589844 L 56.116844177246094 43.30853271484375 L 56.0268440246582 34.99853515625 L 51.7768440246582 35.33853530883789 ZM 71.84034729003906 43.06853485107422 C 71.84034729003906 41.96186828613281 71.74368286132812 41.22520065307617 71.55034637451172 40.85853576660156 C 71.35700988769531 40.49186706542969 70.91034698486328 40.30853271484375 70.21034240722656 40.30853271484375 C 69.50367736816406 40.30853271484375 68.70368194580078 40.58853530883789 67.81034851074219 41.148536682128906 L 67.81034851074219 42.898536682128906 L 68.07034301757812 48.538536071777344 L 64.8303451538086 49.13853454589844 L 65.12034606933594 43.30853271484375 L 64.8303451538086 31.15853500366211 L 68.12034606933594 30.558534622192383 L 67.81034851074219 36.778533935546875 L 67.81034851074219 39.58853530883789 C 68.05034637451172 39.26853561401367 68.32034301757812 38.9552001953125 68.62034606933594 38.648536682128906 C 68.92700958251953 38.348533630371094 69.40034484863281 38.00520324707031 70.04034423828125 37.618534088134766 C 70.68034362792969 37.231868743896484 71.36367797851562 37.038536071777344 72.09034729003906 37.038536071777344 C 72.8170166015625 37.038536071777344 73.43034362792969 37.32520294189453 73.93034362792969 37.898536682128906 C 74.42367553710938 38.46520233154297 74.67034912109375 39.235198974609375 74.67034912109375 40.208534240722656 L 74.53034973144531 42.898536682128906 L 74.79034423828125 48.65853500366211 L 71.55034637451172 49.2585334777832 L 71.84034729003906 43.06853485107422 ZM 81.74981689453125 46.688533782958984 C 82.21648406982422 46.688533782958984 82.70648193359375 46.56853485107422 83.21981811523438 46.32853317260742 C 83.72648620605469 46.08853530883789 84.1264877319336 45.848533630371094 84.41981506347656 45.60853576660156 L 84.84981536865234 45.24853515625 L 85.94981384277344 46.598533630371094 C 85.7898178100586 46.86520004272461 85.54315185546875 47.175201416015625 85.2098159790039 47.528533935546875 C 84.86981964111328 47.881866455078125 84.52981567382812 48.18186950683594 84.1898193359375 48.42853546142578 C 83.84315490722656 48.675201416015625 83.38648223876953 48.89853286743164 82.81981658935547 49.098533630371094 C 82.2531509399414 49.29853439331055 81.6664810180664 49.39853286743164 81.059814453125 49.39853286743164 C 79.75981903076172 49.39853286743164 78.7031478881836 48.90853500366211 77.88981628417969 47.92853546142578 C 77.06981658935547 46.94186782836914 76.65982055664062 45.67186737060547 76.65982055664062 44.118534088134766 C 76.65982055664062 42.17186737060547 77.22982025146484 40.46186828613281 78.36981964111328 38.98853302001953 C 79.5031509399414 37.515201568603516 80.82981872558594 36.778533935546875 82.34981536865234 36.778533935546875 C 83.51648712158203 36.778533935546875 84.42648315429688 37.105201721191406 85.07981872558594 37.7585334777832 C 85.72648620605469 38.41853332519531 86.04981994628906 39.33853530883789 86.04981994628906 40.51853561401367 C 86.04981994628906 41.22520065307617 85.92981719970703 42.02519989013672 85.6898193359375 42.91853332519531 L 85.2098159790039 43.42853546142578 L 79.2098159790039 43.97853469848633 C 79.483154296875 45.78520202636719 80.32981872558594 46.688533782958984 81.74981689453125 46.688533782958984 M 81.74981689453125 39.24853515625 C 81.04981994628906 39.24853515625 80.4598159790039 39.53186798095703 79.97982025146484 40.098533630371094 C 79.49981689453125 40.67186737060547 79.21981811523438 41.398536682128906 79.13981628417969 42.278533935546875 L 83.21981811523438 41.76853561401367 C 83.26648712158203 41.4018669128418 83.2898178100586 41.098533630371094 83.2898178100586 40.85853576660156 C 83.2898178100586 39.78520202636719 82.77648162841797 39.24853515625 81.74981689453125 39.24853515625 ZM 105.05921173095703 32.528533935546875 L 104.73921203613281 42.898536682128906 L 105.00920867919922 48.60853576660156 L 102.17920684814453 49.208534240722656 L 95.01921081542969 37.63853454589844 L 95.01921081542969 42.898536682128906 L 95.35920715332031 49.13853454589844 L 92.35920715332031 49.13853454589844 L 92.64920806884766 43.30853271484375 L 92.35920715332031 32.648536682128906 L 95.23921203613281 32.50853729248047 L 102.36920928955078 44.23853302001953 L 102.12921142578125 32.88853454589844 L 105.05921173095703 32.528533935546875 ZM 107.64451599121094 44.118534088134766 C 107.64451599121094 42.071868896484375 108.1978530883789 40.33853530883789 109.30451965332031 38.91853332519531 C 110.4045181274414 37.49186706542969 111.69451904296875 36.778533935546875 113.17451477050781 36.778533935546875 C 114.6545181274414 36.778533935546875 115.80785369873047 37.2585334777832 116.634521484375 38.218536376953125 C 117.461181640625 39.17853546142578 117.87451934814453 40.451866149902344 117.87451934814453 42.038536071777344 C 117.87451934814453 44.14520263671875 117.3411865234375 45.89853286743164 116.27452087402344 47.29853439331055 C 115.20785522460938 48.69853591918945 113.86785125732422 49.39853286743164 112.2545166015625 49.39853286743164 C 110.92784881591797 49.39853286743164 109.82785034179688 48.89853286743164 108.95452117919922 47.89853286743164 C 108.08118438720703 46.89853286743164 107.64451599121094 45.63853454589844 107.64451599121094 44.118534088134766 M 115.18451690673828 43.278533935546875 C 115.18451690673828 40.958534240722656 114.39118194580078 39.79853439331055 112.80451965332031 39.79853439331055 C 111.15785217285156 39.79853439331055 110.33451843261719 40.88853454589844 110.33451843261719 43.06853485107422 C 110.33451843261719 44.201866149902344 110.5678482055664 45.08853530883789 111.03451538085938 45.72853469848633 C 111.49451446533203 46.368534088134766 112.1045150756836 46.688533782958984 112.86451721191406 46.688533782958984 C 113.62451934814453 46.688533782958984 114.20118713378906 46.39853286743164 114.59452056884766 45.81853485107422 C 114.98785400390625 45.231868743896484 115.18451690673828 44.38520050048828 115.18451690673828 43.278533935546875 ZM 119.6720199584961 37.54853439331055 L 122.572021484375 36.91853332519531 C 122.71868896484375 38.1518669128418 122.81535339355469 39.321868896484375 122.86202239990234 40.42853546142578 C 124.31535339355469 38.16853332519531 125.68202209472656 37.038536071777344 126.96202087402344 37.038536071777344 L 126.7020263671875 40.788536071777344 C 125.77535247802734 40.788536071777344 125.04202270507812 40.87186813354492 124.50202178955078 41.038536071777344 C 123.96868896484375 41.2052001953125 123.4220199584961 41.538536071777344 122.86202239990234 42.038536071777344 L 122.86202239990234 42.898536682128906 L 123.12202453613281 48.538536071777344 L 119.91202545166016 49.13853454589844 L 120.2020263671875 43.30853271484375 C 120.1353530883789 41.161869049072266 119.95868682861328 39.24186706542969 119.6720199584961 37.54853439331055 ZM 129.41566467285156 37.51853561401367 L 129.41566467285156 34.90853500366211 L 132.65567016601562 34.278533935546875 L 132.3456573486328 37.51853561401367 L 135.24566650390625 37.51853561401367 L 134.98565673828125 39.48853302001953 L 132.24566650390625 39.48853302001953 L 132.1256561279297 44.5085334777832 C 132.1256561279297 45.26186752319336 132.19898986816406 45.76186752319336 132.3456573486328 46.0085334777832 C 132.48565673828125 46.25519943237305 132.74899291992188 46.378536224365234 133.1356658935547 46.378536224365234 C 133.51565551757812 46.378536224365234 134.02566528320312 46.291866302490234 134.66566467285156 46.118534088134766 L 134.81565856933594 47.81853485107422 C 133.7556610107422 48.69853591918945 132.82566833496094 49.13853454589844 132.02566528320312 49.13853454589844 C 131.2256622314453 49.13853454589844 130.57232666015625 48.84519958496094 130.06565856933594 48.2585334777832 C 129.5523223876953 47.67853546142578 129.29566955566406 46.915199279785156 129.29566955566406 45.968536376953125 L 129.4356689453125 43.278533935546875 L 129.41566467285156 39.48853302001953 L 127.75566101074219 39.48853302001953 L 128.02566528320312 37.51853561401367 L 129.41566467285156 37.51853561401367 ZM 144.0052947998047 43.06853485107422 C 144.0052947998047 41.96186828613281 143.90863037109375 41.22520065307617 143.71530151367188 40.85853576660156 C 143.52197265625 40.49186706542969 143.07530212402344 40.30853271484375 142.37530517578125 40.30853271484375 C 141.66864013671875 40.30853271484375 140.86863708496094 40.58853530883789 139.9752960205078 41.148536682128906 L 139.9752960205078 42.898536682128906 L 140.2353057861328 48.538536071777344 L 136.99530029296875 49.13853454589844 L 137.28529357910156 43.30853271484375 L 136.99530029296875 31.15853500366211 L 140.28529357910156 30.558534622192383 L 139.9752960205078 36.778533935546875 L 139.9752960205078 39.58853530883789 C 140.21530151367188 39.26853561401367 140.4853057861328 38.9552001953125 140.78529357910156 38.648536682128906 C 141.0919647216797 38.348533630371094 141.5653076171875 38.00520324707031 142.20530700683594 37.618534088134766 C 142.84530639648438 37.231868743896484 143.5286407470703 37.038536071777344 144.2552947998047 37.038536071777344 C 144.98196411132812 37.038536071777344 145.59530639648438 37.32520294189453 146.09530639648438 37.898536682128906 C 146.58863830566406 38.46520233154297 146.83529663085938 39.235198974609375 146.83529663085938 40.208534240722656 L 146.69529724121094 42.898536682128906 L 146.95530700683594 48.65853500366211 L 143.71530151367188 49.2585334777832 L 144.0052947998047 43.06853485107422 ZM 149.57476806640625 34.15853500366211 L 152.1847686767578 33.91853332519531 C 151.83810424804688 36.06520080566406 151.33477783203125 38.01853561401367 150.67477416992188 39.778533935546875 L 149.30477905273438 39.708534240722656 C 149.48477172851562 37.688533782958984 149.57476806640625 35.83853530883789 149.57476806640625 34.15853500366211 ZM 157.8565673828125 46.90853500366211 C 158.6832275390625 46.90853500366211 159.0965576171875 46.538536071777344 159.0965576171875 45.79853439331055 C 159.0965576171875 45.54520034790039 158.91656494140625 45.30520248413086 158.5565643310547 45.07853317260742 C 158.19656372070312 44.85853576660156 157.75656127929688 44.63520050048828 157.23655700683594 44.40853500366211 C 156.71656799316406 44.188533782958984 156.19656372070312 43.938533782958984 155.6765594482422 43.65853500366211 C 155.1565704345703 43.37853240966797 154.71656799316406 42.98853302001953 154.3565673828125 42.48853302001953 C 153.99656677246094 41.995201110839844 153.81655883789062 41.42853546142578 153.81655883789062 40.788536071777344 C 153.81655883789062 39.71520233154297 154.28990173339844 38.778533935546875 155.23655700683594 37.97853469848633 C 156.1832275390625 37.17853546142578 157.2698974609375 36.778533935546875 158.49656677246094 36.778533935546875 C 159.07656860351562 36.778533935546875 159.6432342529297 36.84519958496094 160.19656372070312 36.97853469848633 C 160.74322509765625 37.118534088134766 161.27322387695312 37.33186721801758 161.78656005859375 37.618534088134766 L 160.1765594482422 40.54853439331055 C 160.0699005126953 40.44853591918945 159.9265594482422 40.32853317260742 159.74656677246094 40.188533782958984 C 159.57322692871094 40.0418701171875 159.24322509765625 39.85186767578125 158.75656127929688 39.618534088134766 C 158.2632293701172 39.391868591308594 157.82989501953125 39.278533935546875 157.45655822753906 39.278533935546875 C 157.08323669433594 39.278533935546875 156.79656982421875 39.36186981201172 156.5965576171875 39.528533935546875 C 156.3965606689453 39.6952018737793 156.29656982421875 39.925201416015625 156.29656982421875 40.218536376953125 C 156.29656982421875 40.51853561401367 156.5699005126953 40.81520080566406 157.11656188964844 41.10853576660156 C 157.66989135742188 41.40853500366211 158.2765655517578 41.68186950683594 158.9365692138672 41.92853546142578 C 159.5898895263672 42.175201416015625 160.1932373046875 42.58186721801758 160.74656677246094 43.148536682128906 C 161.29989624023438 43.71520233154297 161.57656860351562 44.391868591308594 161.57656860351562 45.17853546142578 C 161.57656860351562 46.29853439331055 161.11656188964844 47.28186798095703 160.19656372070312 48.128536224365234 C 159.2765655517578 48.97520065307617 158.21656799316406 49.39853286743164 157.0165557861328 49.39853286743164 C 156.24322509765625 49.39853286743164 155.5265655517578 49.231868743896484 154.86656188964844 48.89853286743164 C 154.19989013671875 48.56520080566406 153.72323608398438 48.22853469848633 153.4365692138672 47.88853454589844 L 153.00656127929688 47.38853454589844 L 154.8965606689453 45.17853546142578 C 154.99656677246094 45.30520248413086 155.1332244873047 45.46520233154297 155.3065643310547 45.65853500366211 C 155.48655700683594 45.85186767578125 155.83656311035156 46.10853576660156 156.3565673828125 46.42853546142578 C 156.87655639648438 46.74853515625 157.37655639648438 46.90853500366211 157.8565673828125 46.90853500366211 ZM 165.98800659179688 35.33853530883789 L 166.2480010986328 32.57853698730469 L 177.64801025390625 32.57853698730469 L 177.38800048828125 35.33853530883789 L 173.2080078125 34.97853469848633 L 173.11801147460938 42.898536682128906 L 173.4080047607422 49.13853454589844 L 170.04800415039062 49.13853454589844 L 170.3280029296875 43.30853271484375 L 170.23800659179688 34.99853515625 L 165.98800659179688 35.33853530883789 ZM 181.44151306152344 49.13853454589844 C 180.50152587890625 49.13853454589844 179.7315216064453 48.83853530883789 179.1315155029297 48.23853302001953 C 178.53152465820312 47.63853454589844 178.2315216064453 46.83186721801758 178.2315216064453 45.81853485107422 C 178.2315216064453 44.79853439331055 178.69485473632812 43.91853332519531 179.62152099609375 43.17853546142578 C 180.54818725585938 42.43186950683594 181.6748504638672 42.05853271484375 183.00152587890625 42.05853271484375 L 184.6315155029297 42.05853271484375 L 184.6315155029297 41.648536682128906 C 184.6315155029297 40.868534088134766 184.47152709960938 40.33186721801758 184.15151977539062 40.038536071777344 C 183.83151245117188 39.751869201660156 183.2315216064453 39.60853576660156 182.3515167236328 39.60853576660156 C 181.98484802246094 39.60853576660156 181.551513671875 39.685203552246094 181.051513671875 39.83853530883789 C 180.54486083984375 39.99186706542969 179.97817993164062 40.22853469848633 179.3515167236328 40.54853439331055 L 178.66151428222656 38.648536682128906 C 179.3481903076172 38.16853332519531 180.1848602294922 37.73853302001953 181.17152404785156 37.35853576660156 C 182.15151977539062 36.971866607666016 182.96151733398438 36.778533935546875 183.6015167236328 36.778533935546875 C 186.11485290527344 36.778533935546875 187.37152099609375 37.995201110839844 187.37152099609375 40.42853546142578 L 187.37152099609375 45.12853240966797 C 187.37152099609375 46.028533935546875 187.65151977539062 47.028533935546875 188.21151733398438 48.128536224365234 L 185.67152404785156 49.208534240722656 C 185.27151489257812 48.44186782836914 184.974853515625 47.75519943237305 184.78152465820312 47.14853286743164 C 183.90151977539062 48.47520065307617 182.78819274902344 49.13853454589844 181.44151306152344 49.13853454589844 M 182.45152282714844 46.688533782958984 C 183.09152221679688 46.688533782958984 183.8181915283203 46.36186981201172 184.6315155029297 45.708534240722656 L 184.6315155029297 44.098533630371094 C 183.78485107421875 43.90520095825195 183.0981903076172 43.80853271484375 182.57151794433594 43.80853271484375 C 181.56484985351562 43.80853271484375 181.0615234375 44.2585334777832 181.0615234375 45.15853500366211 C 181.0615234375 45.618534088134766 181.1881866455078 45.98853302001953 181.44151306152344 46.26853561401367 C 181.70152282714844 46.54853439331055 182.03819274902344 46.688533782958984 182.45152282714844 46.688533782958984 ZM 193.92703247070312 46.90853500366211 C 194.75369262695312 46.90853500366211 195.16702270507812 46.538536071777344 195.16702270507812 45.79853439331055 C 195.16702270507812 45.54520034790039 194.98703002929688 45.30520248413086 194.6270294189453 45.07853317260742 C 194.26702880859375 44.85853576660156 193.8270263671875 44.63520050048828 193.30702209472656 44.40853500366211 C 192.7870330810547 44.188533782958984 192.26702880859375 43.938533782958984 191.7470245361328 43.65853500366211 C 191.22703552246094 43.37853240966797 190.7870330810547 42.98853302001953 190.42703247070312 42.48853302001953 C 190.06703186035156 41.995201110839844 189.88702392578125 41.42853546142578 189.88702392578125 40.788536071777344 C 189.88702392578125 39.71520233154297 190.36036682128906 38.778533935546875 191.30702209472656 37.97853469848633 C 192.25369262695312 37.17853546142578 193.34036254882812 36.778533935546875 194.56703186035156 36.778533935546875 C 195.14703369140625 36.778533935546875 195.7136993408203 36.84519958496094 196.26702880859375 36.97853469848633 C 196.81369018554688 37.118534088134766 197.34368896484375 37.33186721801758 197.85702514648438 37.618534088134766 L 196.2470245361328 40.54853439331055 C 196.14036560058594 40.44853591918945 195.9970245361328 40.32853317260742 195.81703186035156 40.188533782958984 C 195.64369201660156 40.0418701171875 195.31369018554688 39.85186767578125 194.8270263671875 39.618534088134766 C 194.3336944580078 39.391868591308594 193.90036010742188 39.278533935546875 193.5270233154297 39.278533935546875 C 193.15370178222656 39.278533935546875 192.86703491210938 39.36186981201172 192.66702270507812 39.528533935546875 C 192.46702575683594 39.6952018737793 192.36703491210938 39.925201416015625 192.36703491210938 40.218536376953125 C 192.36703491210938 40.51853561401367 192.64036560058594 40.81520080566406 193.18702697753906 41.10853576660156 C 193.7403564453125 41.40853500366211 194.34703063964844 41.68186950683594 195.0070343017578 41.92853546142578 C 195.6603546142578 42.175201416015625 196.26370239257812 42.58186721801758 196.81703186035156 43.148536682128906 C 197.370361328125 43.71520233154297 197.64703369140625 44.391868591308594 197.64703369140625 45.17853546142578 C 197.64703369140625 46.29853439331055 197.18702697753906 47.28186798095703 196.26702880859375 48.128536224365234 C 195.34703063964844 48.97520065307617 194.2870330810547 49.39853286743164 193.08702087402344 49.39853286743164 C 192.31369018554688 49.39853286743164 191.59703063964844 49.231868743896484 190.93702697753906 48.89853286743164 C 190.27035522460938 48.56520080566406 189.793701171875 48.22853469848633 189.5070343017578 47.88853454589844 L 189.0770263671875 47.38853454589844 L 190.96702575683594 45.17853546142578 C 191.06703186035156 45.30520248413086 191.2036895751953 45.46520233154297 191.3770294189453 45.65853500366211 C 191.55702209472656 45.85186767578125 191.9070281982422 46.10853576660156 192.42703247070312 46.42853546142578 C 192.947021484375 46.74853515625 193.447021484375 46.90853500366211 193.92703247070312 46.90853500366211 ZM 200.692626953125 37.51853561401367 L 200.692626953125 34.90853500366211 L 203.93263244628906 34.278533935546875 L 203.62261962890625 37.51853561401367 L 206.5226287841797 37.51853561401367 L 206.2626190185547 39.48853302001953 L 203.5226287841797 39.48853302001953 L 203.40261840820312 44.5085334777832 C 203.40261840820312 45.26186752319336 203.4759521484375 45.76186752319336 203.62261962890625 46.0085334777832 C 203.7626190185547 46.25519943237305 204.0259552001953 46.378536224365234 204.41262817382812 46.378536224365234 C 204.79261779785156 46.378536224365234 205.30262756347656 46.291866302490234 205.942626953125 46.118534088134766 L 206.09262084960938 47.81853485107422 C 205.03262329101562 48.69853591918945 204.10263061523438 49.13853454589844 203.30262756347656 49.13853454589844 C 202.50262451171875 49.13853454589844 201.8492889404297 48.84519958496094 201.34262084960938 48.2585334777832 C 200.82928466796875 47.67853546142578 200.5726318359375 46.915199279785156 200.5726318359375 45.968536376953125 L 200.71263122558594 43.278533935546875 L 200.692626953125 39.48853302001953 L 199.03262329101562 39.48853302001953 L 199.30262756347656 37.51853561401367 L 200.692626953125 37.51853561401367 ZM 212.59226989746094 46.688533782958984 C 213.05892944335938 46.688533782958984 213.54893493652344 46.56853485107422 214.062255859375 46.32853317260742 C 214.5689239501953 46.08853530883789 214.96893310546875 45.848533630371094 215.26226806640625 45.60853576660156 L 215.6922607421875 45.24853515625 L 216.79226684570312 46.598533630371094 C 216.63226318359375 46.86520004272461 216.38558959960938 47.175201416015625 216.05226135253906 47.528533935546875 C 215.71226501464844 47.881866455078125 215.3722686767578 48.18186950683594 215.03225708007812 48.42853546142578 C 214.6855926513672 48.675201416015625 214.2289276123047 48.89853286743164 213.66226196289062 49.098533630371094 C 213.09559631347656 49.29853439331055 212.50892639160156 49.39853286743164 211.9022674560547 49.39853286743164 C 210.60226440429688 49.39853286743164 209.54559326171875 48.90853500366211 208.73226928710938 47.92853546142578 C 207.91226196289062 46.94186782836914 207.50225830078125 45.67186737060547 207.50225830078125 44.118534088134766 C 207.50225830078125 42.17186737060547 208.072265625 40.46186828613281 209.21226501464844 38.98853302001953 C 210.34559631347656 37.515201568603516 211.67225646972656 36.778533935546875 213.1922607421875 36.778533935546875 C 214.3589324951172 36.778533935546875 215.26893615722656 37.105201721191406 215.92225646972656 37.7585334777832 C 216.5689239501953 38.41853332519531 216.8922576904297 39.33853530883789 216.8922576904297 40.51853561401367 C 216.8922576904297 41.22520065307617 216.7722625732422 42.02519989013672 216.53225708007812 42.91853332519531 L 216.05226135253906 43.42853546142578 L 210.05226135253906 43.97853469848633 C 210.32559204101562 45.78520202636719 211.17225646972656 46.688533782958984 212.59226989746094 46.688533782958984 M 212.59226989746094 39.24853515625 C 211.8922576904297 39.24853515625 211.30226135253906 39.53186798095703 210.822265625 40.098533630371094 C 210.34226989746094 40.67186737060547 210.062255859375 41.398536682128906 209.98226928710938 42.278533935546875 L 214.062255859375 41.76853561401367 C 214.1089324951172 41.4018669128418 214.13226318359375 41.098533630371094 214.13226318359375 40.85853576660156 C 214.13226318359375 39.78520202636719 213.61892700195312 39.24853515625 212.59226989746094 39.24853515625 Z" transform="matrix(0.2309519201517105, 0, 0, 0.2309519201517105, 48.310386657714844, 15.350879669189453)" style="fill: rgb(85, 85, 85); white-space: pre; color: rgb(85, 85, 85);"/></svg>