<?xml version="1.0" encoding="utf-8"?>
<svg id="master-artboard" viewBox="0 0 30 24" version="1.1" xmlns="http://www.w3.org/2000/svg" x="0px" y="0px" style="enable-background:new 0 0 1400 980;" width="30px" height="24px"><rect id="ee-background" x="0" y="0" width="30" height="24" style="fill: white; fill-opacity: 0; pointer-events: none;"/>


<g transform="matrix(0.11185681074857712, 0, 0, 0.09118541330099106, -44.84563700358075, -47.560035705566406)"><g transform="matrix(1, 0, 0, 1, 1.1368683772161603e-13, 0)"><g transform="matrix(1, 0, 0, 1, 1.1368683772161603e-13, 0)">
		<path class="st0" d="M656.5,618h-20.2l35.3-91.4c0.3-0.8,0.2-1.8-0.3-2.5c-0.5-0.7-1.4-1.2-2.2-1.2h-15.5c-1.1,0-2.1,0.7-2.5,1.7&#10;&#9;&#9;&#9;L615,618H419.2c-8.4,0-15.3,6.9-15.3,15.3v18.2c0,7.5,5.4,13.8,12.6,15.1v19.2c0,42.9,33.5,78.2,75.7,81.1l-11.9,14.7&#10;&#9;&#9;&#9;c-0.7,0.8-0.8,1.9-0.3,2.9c0.5,0.9,1.4,1.6,2.5,1.6h109.8c1.1,0,2-0.6,2.5-1.6c0.5-0.9,0.3-2.1-0.3-2.9l-11.8-14.6&#10;&#9;&#9;&#9;c42.7-2.3,76.8-37.8,76.8-81.1v-19.2c7.1-1.3,12.6-7.5,12.6-15.1v-18.2C671.8,624.9,665,618,656.5,618z M665.1,528.3L630.5,618&#10;&#9;&#9;&#9;h-2.3l35.4-89.7H665.1z M655.5,528.3h5.2L625.2,618h-4.4L655.5,528.3z M439.2,623.5h197.4c2.9,1.7,4.9,4.9,4.9,8.5v20.9&#10;&#9;&#9;&#9;c0,0.1,0,0.1,0,0.2H434.3c0-0.1,0-0.1,0-0.2V632C434.3,628.4,436.2,625.2,439.2,623.5z M439.2,661.4c-2.1-1.2-3.7-3.2-4.5-5.6H641&#10;&#9;&#9;&#9;c-0.7,2.4-2.4,4.4-4.5,5.6H439.2z M496.9,780.6l8.7-13.5h63.6l8.7,13.5H496.9z M586.5,780.6h-5.3l-8.7-13.5h3.2&#10;&#9;&#9;&#9;c0.1,0.1,0.2,0.3,0.3,0.4L586.5,780.6z M576.2,761.6h-76.7c-31.5-6.4-55.2-34.2-55.2-67.5v-27.3h187.1v5.9h-73.6&#10;&#9;&#9;&#9;c-0.8,0-1.4,0.6-1.4,1.4s0.6,1.4,1.4,1.4h73.6v4.5h-60.9c-0.8,0-1.4,0.6-1.4,1.4c0,0.8,0.6,1.4,1.4,1.4h60.9v11.4&#10;&#9;&#9;&#9;C631.4,727.4,607.7,755.3,576.2,761.6z M653.8,685.8c0,38.3-28.6,70.1-65.5,75.1c26.8-10.4,45.9-36.4,45.9-66.8v-11.4h19.7V685.8z&#10;&#9;&#9;&#9; M653.8,680h-19.7v-4.5h19.7V680z M653.8,672.7h-19.7v-5.9h19.7V672.7z M656.5,661.4h-15.7c1.4-1.6,2.5-3.5,3-5.6h21.6&#10;&#9;&#9;&#9;C663.8,659.1,660.4,661.4,656.5,661.4z M666.4,651.5c0,0.5,0,1-0.1,1.5h-22.1c0-0.1,0-0.1,0-0.2V632c0-3.3-1.3-6.3-3.3-8.5h15.7&#10;&#9;&#9;&#9;c5.4,0,9.8,4.4,9.8,9.8V651.5z" style="fill: rgb(255, 255, 255); opacity: 1; stroke: rgb(255, 245, 245);"/>
		<path class="st0" d="M508.3,592.9c3.2,9.2,0.4,13.7,0.3,13.9c-0.9,1.2-0.6,2.9,0.7,3.8c0.5,0.3,1,0.5,1.6,0.5&#10;&#9;&#9;&#9;c0.9,0,1.7-0.4,2.2-1.2c0.2-0.3,4.6-6.7,0.3-18.8c-0.8-2.3-1.7-4.5-2.7-6.9c-3.7-9-7.9-19.3-5.6-32c2.9-16.1,8-25.1,8.1-25.2&#10;&#9;&#9;&#9;c0.8-1.3,0.3-3-1-3.7c-1.3-0.8-3-0.3-3.7,1c-0.2,0.4-5.6,9.8-8.7,27c-2.6,14.3,2.1,25.8,5.9,35&#10;&#9;&#9;&#9;C506.6,588.6,507.5,590.8,508.3,592.9z" style="fill: rgb(255, 255, 255); opacity: 1; stroke: rgb(255, 245, 245);"/>
		<path class="st0" d="M539,592.9c3.2,9.2,0.4,13.7,0.3,13.9c-0.9,1.2-0.6,2.9,0.7,3.8c0.5,0.3,1,0.5,1.6,0.5c0.9,0,1.7-0.4,2.2-1.2&#10;&#9;&#9;&#9;c0.2-0.3,4.6-6.7,0.3-18.8c-0.8-2.3-1.7-4.5-2.7-6.9c-3.7-9-7.9-19.3-5.6-32c2.9-16.1,8-25.1,8.1-25.2c0.8-1.3,0.3-3-1-3.7&#10;&#9;&#9;&#9;c-1.3-0.8-3-0.3-3.7,1c-0.2,0.4-5.6,9.8-8.7,27c-2.6,14.3,2.1,25.8,5.9,35C537.3,588.6,538.2,590.8,539,592.9z" style="fill: rgb(255, 255, 255); opacity: 1; stroke: rgb(255, 245, 245);"/>
		<path class="st0" d="M569.7,592.9c3.2,9.2,0.4,13.7,0.3,13.9c-0.9,1.2-0.6,2.9,0.7,3.8c0.5,0.3,1,0.5,1.6,0.5&#10;&#9;&#9;&#9;c0.9,0,1.7-0.4,2.2-1.2c0.2-0.3,4.6-6.7,0.3-18.8c-0.8-2.3-1.7-4.5-2.7-6.9c-3.7-9-7.9-19.3-5.6-32c2.9-16.1,8-25.1,8.1-25.2&#10;&#9;&#9;&#9;c0.8-1.3,0.3-3-1-3.7c-1.3-0.8-3-0.3-3.7,1c-0.2,0.4-5.6,9.8-8.7,27c-2.6,14.3,2.1,25.8,5.9,35C568,588.6,568.9,590.8,569.7,592.9&#10;&#9;&#9;&#9;z" style="fill: rgb(255, 255, 255); opacity: 1; stroke: rgb(255, 245, 245);"/>
	</g></g></g></svg>