<?xml version="1.0" standalone="no"?>
<!DOCTYPE svg PUBLIC "-//W3C//DTD SVG 20010904//EN"
 "http://www.w3.org/TR/2001/REC-SVG-20010904/DTD/svg10.dtd">
<svg version="1.0" xmlns="http://www.w3.org/2000/svg"
 width="799.000000pt" height="168.000000pt" viewBox="0 0 799.000000 168.000000"
 preserveAspectRatio="xMidYMid meet">
<metadata>
Created by potrace 1.16, written by Peter Selinger 2001-2019
</metadata>
<g transform="translate(0.000000,168.000000) scale(0.100000,-0.100000)"
fill="#000000" stroke="none">
<path d="M682 1579 c-142 -24 -270 -89 -378 -192 -126 -119 -200 -266 -227
-448 -9 -68 -9 -96 6 -180 48 -280 216 -485 480 -583 78 -29 89 -30 237 -30
148 0 159 1 237 30 253 94 420 288 474 549 24 113 23 168 0 275 -36 164 -90
261 -205 375 -90 89 -161 135 -263 170 -121 42 -242 54 -361 34z m343 -43
c217 -74 392 -257 461 -481 14 -46 19 -91 18 -195 0 -119 -4 -145 -27 -215
-37 -111 -90 -198 -172 -280 -284 -286 -726 -286 -1010 0 -129 129 -193 278
-202 465 -9 198 53 370 187 513 102 109 200 168 345 208 106 29 291 22 400
-15z"/>
<path d="M665 1510 c-116 -25 -243 -94 -330 -179 -134 -132 -198 -284 -198
-471 0 -258 138 -481 368 -595 234 -116 535 -76 729 96 381 340 258 957 -226
1126 -58 21 -96 26 -188 29 -63 2 -133 -1 -155 -6z m335 -36 c239 -79 412
-291 440 -541 41 -371 -232 -696 -605 -719 -119 -8 -214 13 -331 70 -315 156
-443 541 -287 864 55 113 177 234 293 290 162 79 325 90 490 36z"/>
<path d="M810 1295 c0 -14 -3 -15 -15 -5 -12 10 -20 7 -45 -20 -38 -41 -183
-291 -218 -378 -28 -67 -79 -149 -158 -253 -57 -75 -78 -121 -70 -153 8 -33
44 -35 73 -3 12 12 44 74 72 137 73 169 106 224 151 255 43 30 82 86 130 185
l30 65 -6 -58 c-5 -45 -3 -66 11 -97 21 -46 24 -25 -44 -284 -49 -186 -62
-295 -38 -315 49 -40 82 32 97 219 21 259 37 334 80 375 16 16 30 38 31 49 0
12 7 0 15 -26 10 -31 26 -57 52 -78 l37 -31 0 -242 c1 -291 0 -282 25 -307 16
-16 25 -18 39 -11 30 17 33 69 11 222 -11 79 -24 189 -30 243 l-10 100 37 39
c38 38 38 39 37 117 -1 68 -6 89 -32 143 -48 96 -98 109 -136 35 l-17 -33 5
53 c3 28 3 52 1 52 -2 0 -13 -44 -25 -97 -12 -54 -26 -102 -31 -108 -12 -12
-12 -11 6 101 9 53 14 98 12 101 -2 2 -12 -36 -22 -84 -32 -155 -42 -134 -20
42 2 22 -6 -2 -19 -53 -37 -146 -49 -131 -21 27 8 46 13 86 10 89 -3 3 -5 -3
-5 -13z"/>
<path d="M1570 925 l0 -75 35 0 35 0 -2 -187 -3 -188 -32 -3 -33 -3 0 -75 0
-74 170 0 170 0 0 75 c0 68 -2 75 -20 75 -18 0 -20 7 -20 60 l0 60 55 0 55 0
0 -60 c0 -47 -3 -60 -15 -60 -12 0 -15 -15 -15 -75 l0 -75 165 0 165 0 0 75 0
75 -30 0 -30 0 0 190 0 190 30 0 30 0 0 75 0 75 -165 0 -165 0 0 -75 c0 -60 3
-75 15 -75 12 0 15 -13 15 -61 l0 -60 -52 3 -53 3 -3 58 c-3 52 -1 57 18 57
18 0 20 6 20 75 l0 75 -170 0 -170 0 0 -75z"/>
<path d="M5380 925 l0 -75 35 0 35 0 0 -190 0 -190 -35 0 -35 0 0 -75 0 -75
180 0 180 0 0 75 0 75 -30 0 c-29 0 -30 2 -30 45 l0 45 73 0 c180 0 261 68
261 220 0 91 -21 141 -73 176 -54 35 -122 44 -352 44 l-209 0 0 -75z"/>
<path d="M6661 986 c-45 -25 -63 -84 -40 -129 21 -40 51 -57 106 -57 44 0 58
5 85 29 27 24 33 36 33 71 0 35 -6 47 -33 71 -26 24 -41 29 -80 29 -26 -1 -58
-7 -71 -14z"/>
<path d="M7683 887 l-93 -20 0 -49 c0 -45 -2 -48 -25 -48 -24 0 -25 -2 -25
-65 0 -63 1 -65 25 -65 l25 0 0 -107 c0 -124 14 -165 68 -196 39 -23 146 -26
189 -5 26 12 28 17 28 73 0 60 0 60 -28 57 -47 -6 -57 12 -57 99 l0 79 30 0
30 0 0 65 0 65 -30 0 -30 0 0 70 c0 39 -3 70 -7 69 -5 -1 -50 -10 -100 -22z"/>
<path d="M3297 765 c-22 -7 -50 -23 -63 -36 l-24 -22 0 31 0 32 -115 0 -115 0
0 -65 c0 -51 3 -65 15 -65 12 0 15 -17 15 -95 0 -78 -3 -95 -15 -95 -12 0 -15
-14 -15 -65 l0 -65 135 0 135 0 0 65 c0 58 -2 65 -20 65 -18 0 -20 7 -20 68 0
98 37 143 74 90 13 -18 16 -51 16 -155 l0 -133 115 0 115 0 0 65 c0 51 -3 65
-15 65 -12 0 -15 19 -15 108 0 130 -18 179 -73 205 -42 20 -79 21 -130 2z"/>
<path d="M3716 765 c-151 -53 -188 -294 -60 -392 54 -41 144 -48 217 -18 28
12 21 -32 -8 -51 -19 -13 -42 -15 -107 -11 -46 2 -93 8 -105 12 -22 7 -23 5
-23 -58 l0 -66 58 -12 c32 -6 94 -9 142 -7 102 6 169 35 214 91 l31 39 3 174
c3 164 5 174 23 174 17 0 19 8 19 65 l0 65 -95 0 c-71 0 -96 -3 -102 -14 -7
-13 -16 -12 -63 4 -65 23 -92 24 -144 5z m154 -145 c15 -15 20 -33 20 -73 0
-61 -20 -97 -55 -97 -35 0 -55 36 -55 97 0 55 22 93 55 93 8 0 24 -9 35 -20z"/>
<path d="M6208 767 c-100 -29 -157 -103 -158 -207 0 -156 86 -242 246 -243
151 -1 239 74 251 215 10 99 -40 188 -124 223 -51 22 -159 27 -215 12z m126
-136 c34 -37 24 -161 -14 -181 -43 -23 -80 24 -80 101 0 83 52 127 94 80z"/>
<path d="M7267 765 c-22 -7 -50 -23 -63 -36 l-24 -22 0 31 0 32 -115 0 -115 0
0 -65 c0 -51 3 -65 15 -65 12 0 15 -17 15 -95 0 -78 -3 -95 -15 -95 -12 0 -15
-14 -15 -65 l0 -65 135 0 135 0 0 65 c0 58 -2 65 -20 65 -18 0 -20 7 -20 74 0
75 13 106 44 106 31 0 36 -25 36 -167 l0 -143 120 0 120 0 0 65 c0 51 -3 65
-15 65 -12 0 -15 19 -15 108 0 130 -18 179 -73 205 -42 20 -79 21 -130 2z"/>
<path d="M2350 705 c0 -49 3 -65 14 -65 11 0 15 -25 18 -112 4 -122 15 -158
60 -191 19 -14 42 -20 81 -19 58 0 87 11 125 45 l22 20 0 -31 0 -32 120 0 120
0 0 65 c0 51 -3 65 -15 65 -12 0 -15 27 -17 158 l-3 157 -117 3 -118 3 0 -66
c0 -52 3 -65 15 -65 13 0 15 -13 13 -81 -3 -70 -6 -84 -24 -96 -19 -12 -24
-12 -38 2 -13 14 -16 41 -16 161 l0 144 -120 0 -120 0 0 -65z"/>
<path d="M4190 705 c0 -51 3 -65 15 -65 12 0 15 -17 15 -95 0 -78 -3 -95 -15
-95 -12 0 -15 -14 -15 -65 l0 -65 140 0 140 0 0 65 0 65 -30 0 c-29 0 -30 2
-30 44 0 66 37 106 96 106 l44 0 0 85 c0 81 -1 85 -22 85 -26 0 -86 -34 -105
-59 -11 -14 -12 -10 -13 22 l0 37 -110 0 -110 0 0 -65z"/>
<path d="M4570 705 c0 -55 3 -65 18 -65 11 0 50 -52 113 -153 l96 -152 -32
-65 c-18 -36 -36 -75 -39 -87 l-7 -23 140 0 141 0 0 64 0 65 -45 3 -44 3 88
165 c69 130 93 167 114 174 25 9 27 14 27 73 l0 63 -120 0 -120 0 0 -65 c0
-52 3 -65 15 -65 9 0 18 -6 21 -13 6 -18 -36 -111 -46 -101 -4 5 -22 33 -39
62 -23 39 -27 52 -16 52 12 0 15 14 15 65 l0 65 -140 0 -140 0 0 -65z"/>
<path d="M6610 705 c0 -51 3 -65 15 -65 12 0 15 -17 15 -95 0 -78 -3 -95 -15
-95 -12 0 -15 -14 -15 -65 l0 -65 135 0 135 0 0 65 c0 58 -2 65 -20 65 -19 0
-20 7 -20 160 l0 160 -115 0 -115 0 0 -65z"/>
</g>
</svg>
