<?xml version="1.0" encoding="utf-8"?>
<svg id="master-artboard" viewBox="0 0 144.1666717529297 51.5" version="1.1" xmlns="http://www.w3.org/2000/svg" x="0px" y="0px" style="enable-background:new 0 0 1400 980;" width="144.1666717529297px" height="51.5px"><defs><style id="ee-google-fonts">@import url(https://fonts.googleapis.com/css?family=Acme:400);</style></defs><rect id="ee-background" x="0" y="0" width="144.1666717529297" height="51.5" style="fill: rgb(255, 13, 0); fill-opacity: 0; pointer-events: none;"/>








































<g transform="matrix(0.16778521239757538, 0, 0, 0.18996967375278473, -67.26847839355469, -98.44546270370483)"><g transform="matrix(1, 0, 0, 1, 1.1368683772161603e-13, 0)"><g transform="matrix(1, 0, 0, 1, 1.1368683772161603e-13, 0)">
		<path class="st0" d="M656.5,618h-20.2l35.3-91.4c0.3-0.8,0.2-1.8-0.3-2.5c-0.5-0.7-1.4-1.2-2.2-1.2h-15.5c-1.1,0-2.1,0.7-2.5,1.7&#10;&#9;&#9;&#9;L615,618H419.2c-8.4,0-15.3,6.9-15.3,15.3v18.2c0,7.5,5.4,13.8,12.6,15.1v19.2c0,42.9,33.5,78.2,75.7,81.1l-11.9,14.7&#10;&#9;&#9;&#9;c-0.7,0.8-0.8,1.9-0.3,2.9c0.5,0.9,1.4,1.6,2.5,1.6h109.8c1.1,0,2-0.6,2.5-1.6c0.5-0.9,0.3-2.1-0.3-2.9l-11.8-14.6&#10;&#9;&#9;&#9;c42.7-2.3,76.8-37.8,76.8-81.1v-19.2c7.1-1.3,12.6-7.5,12.6-15.1v-18.2C671.8,624.9,665,618,656.5,618z M665.1,528.3L630.5,618&#10;&#9;&#9;&#9;h-2.3l35.4-89.7H665.1z M655.5,528.3h5.2L625.2,618h-4.4L655.5,528.3z M439.2,623.5h197.4c2.9,1.7,4.9,4.9,4.9,8.5v20.9&#10;&#9;&#9;&#9;c0,0.1,0,0.1,0,0.2H434.3c0-0.1,0-0.1,0-0.2V632C434.3,628.4,436.2,625.2,439.2,623.5z M439.2,661.4c-2.1-1.2-3.7-3.2-4.5-5.6H641&#10;&#9;&#9;&#9;c-0.7,2.4-2.4,4.4-4.5,5.6H439.2z M496.9,780.6l8.7-13.5h63.6l8.7,13.5H496.9z M586.5,780.6h-5.3l-8.7-13.5h3.2&#10;&#9;&#9;&#9;c0.1,0.1,0.2,0.3,0.3,0.4L586.5,780.6z M576.2,761.6h-76.7c-31.5-6.4-55.2-34.2-55.2-67.5v-27.3h187.1v5.9h-73.6&#10;&#9;&#9;&#9;c-0.8,0-1.4,0.6-1.4,1.4s0.6,1.4,1.4,1.4h73.6v4.5h-60.9c-0.8,0-1.4,0.6-1.4,1.4c0,0.8,0.6,1.4,1.4,1.4h60.9v11.4&#10;&#9;&#9;&#9;C631.4,727.4,607.7,755.3,576.2,761.6z M653.8,685.8c0,38.3-28.6,70.1-65.5,75.1c26.8-10.4,45.9-36.4,45.9-66.8v-11.4h19.7V685.8z&#10;&#9;&#9;&#9; M653.8,680h-19.7v-4.5h19.7V680z M653.8,672.7h-19.7v-5.9h19.7V672.7z M656.5,661.4h-15.7c1.4-1.6,2.5-3.5,3-5.6h21.6&#10;&#9;&#9;&#9;C663.8,659.1,660.4,661.4,656.5,661.4z M666.4,651.5c0,0.5,0,1-0.1,1.5h-22.1c0-0.1,0-0.1,0-0.2V632c0-3.3-1.3-6.3-3.3-8.5h15.7&#10;&#9;&#9;&#9;c5.4,0,9.8,4.4,9.8,9.8V651.5z" style="fill: rgb(255, 251, 240); opacity: 1;"/>
		<path class="st0" d="M508.3,592.9c3.2,9.2,0.4,13.7,0.3,13.9c-0.9,1.2-0.6,2.9,0.7,3.8c0.5,0.3,1,0.5,1.6,0.5&#10;&#9;&#9;&#9;c0.9,0,1.7-0.4,2.2-1.2c0.2-0.3,4.6-6.7,0.3-18.8c-0.8-2.3-1.7-4.5-2.7-6.9c-3.7-9-7.9-19.3-5.6-32c2.9-16.1,8-25.1,8.1-25.2&#10;&#9;&#9;&#9;c0.8-1.3,0.3-3-1-3.7c-1.3-0.8-3-0.3-3.7,1c-0.2,0.4-5.6,9.8-8.7,27c-2.6,14.3,2.1,25.8,5.9,35&#10;&#9;&#9;&#9;C506.6,588.6,507.5,590.8,508.3,592.9z" style="fill: rgb(255, 251, 240); opacity: 1;"/>
		<path class="st0" d="M539,592.9c3.2,9.2,0.4,13.7,0.3,13.9c-0.9,1.2-0.6,2.9,0.7,3.8c0.5,0.3,1,0.5,1.6,0.5c0.9,0,1.7-0.4,2.2-1.2&#10;&#9;&#9;&#9;c0.2-0.3,4.6-6.7,0.3-18.8c-0.8-2.3-1.7-4.5-2.7-6.9c-3.7-9-7.9-19.3-5.6-32c2.9-16.1,8-25.1,8.1-25.2c0.8-1.3,0.3-3-1-3.7&#10;&#9;&#9;&#9;c-1.3-0.8-3-0.3-3.7,1c-0.2,0.4-5.6,9.8-8.7,27c-2.6,14.3,2.1,25.8,5.9,35C537.3,588.6,538.2,590.8,539,592.9z" style="fill: rgb(255, 251, 240); opacity: 1;"/>
		<path class="st0" d="M569.7,592.9c3.2,9.2,0.4,13.7,0.3,13.9c-0.9,1.2-0.6,2.9,0.7,3.8c0.5,0.3,1,0.5,1.6,0.5&#10;&#9;&#9;&#9;c0.9,0,1.7-0.4,2.2-1.2c0.2-0.3,4.6-6.7,0.3-18.8c-0.8-2.3-1.7-4.5-2.7-6.9c-3.7-9-7.9-19.3-5.6-32c2.9-16.1,8-25.1,8.1-25.2&#10;&#9;&#9;&#9;c0.8-1.3,0.3-3-1-3.7c-1.3-0.8-3-0.3-3.7,1c-0.2,0.4-5.6,9.8-8.7,27c-2.6,14.3,2.1,25.8,5.9,35C568,588.6,568.9,590.8,569.7,592.9&#10;&#9;&#9;&#9;z" style="fill: rgb(255, 251, 240); opacity: 1;"/>
	</g></g></g><path d="M 60.9730224609375 43.04053497314453 L 55.86302185058594 43.04053497314453 L 55.7230224609375 47.450531005859375 L 60.30302429199219 47.450531005859375 L 60.04302215576172 50.00053405761719 L 55.65302276611328 50.00053405761719 L 55.623023986816406 50.79053497314453 L 55.913021087646484 57.03053283691406 L 52.55302047729492 57.03053283691406 L 52.843021392822266 51.200531005859375 L 52.55302047729492 40.47053527832031 L 61.24302291870117 40.47053527832031 L 60.9730224609375 43.04053497314453 ZM 61.910552978515625 52.01053237915039 C 61.910552978515625 49.9638671875 62.463890075683594 48.230533599853516 63.570556640625 46.81053161621094 C 64.6705551147461 45.38386535644531 65.96055603027344 44.6705322265625 67.4405517578125 44.6705322265625 C 68.9205551147461 44.6705322265625 70.07389068603516 45.15053176879883 70.90055847167969 46.11053466796875 C 71.72721862792969 47.070533752441406 72.14055633544922 48.34386444091797 72.14055633544922 49.93053436279297 C 72.14055633544922 52.037200927734375 71.60722351074219 53.790531158447266 70.54055786132812 55.19053268432617 C 69.47389221191406 56.59053421020508 68.1338882446289 57.290531158447266 66.52055358886719 57.290531158447266 C 65.19388580322266 57.290531158447266 64.09388732910156 56.790531158447266 63.22055435180664 55.790531158447266 C 62.34722137451172 54.790531158447266 61.910552978515625 53.53053283691406 61.910552978515625 52.01053237915039 M 69.45055389404297 51.1705322265625 C 69.45055389404297 48.85053253173828 68.65721893310547 47.69053268432617 67.070556640625 47.69053268432617 C 65.42388916015625 47.69053268432617 64.60055541992188 48.78053283691406 64.60055541992188 50.960533142089844 C 64.60055541992188 52.09386444091797 64.8338851928711 52.980533599853516 65.30055236816406 53.62053298950195 C 65.76055145263672 54.26053237915039 66.37055206298828 54.58053207397461 67.13055419921875 54.58053207397461 C 67.89055633544922 54.58053207397461 68.46722412109375 54.290531158447266 68.86055755615234 53.710533142089844 C 69.25389099121094 53.12386703491211 69.45055389404297 52.277198791503906 69.45055389404297 51.1705322265625 ZM 73.47804260253906 52.01053237915039 C 73.47804260253906 49.9638671875 74.03137969970703 48.230533599853516 75.13804626464844 46.81053161621094 C 76.23804473876953 45.38386535644531 77.52804565429688 44.6705322265625 79.00804138183594 44.6705322265625 C 80.48804473876953 44.6705322265625 81.6413803100586 45.15053176879883 82.46804809570312 46.11053466796875 C 83.29470825195312 47.070533752441406 83.70804595947266 48.34386444091797 83.70804595947266 49.93053436279297 C 83.70804595947266 52.037200927734375 83.17471313476562 53.790531158447266 82.10804748535156 55.19053268432617 C 81.0413818359375 56.59053421020508 79.70137786865234 57.290531158447266 78.08804321289062 57.290531158447266 C 76.7613754272461 57.290531158447266 75.661376953125 56.790531158447266 74.78804779052734 55.790531158447266 C 73.91471099853516 54.790531158447266 73.47804260253906 53.53053283691406 73.47804260253906 52.01053237915039 M 81.0180435180664 51.1705322265625 C 81.0180435180664 48.85053253173828 80.2247085571289 47.69053268432617 78.63804626464844 47.69053268432617 C 76.99137878417969 47.69053268432617 76.16804504394531 48.78053283691406 76.16804504394531 50.960533142089844 C 76.16804504394531 52.09386444091797 76.40137481689453 52.980533599853516 76.8680419921875 53.62053298950195 C 77.32804107666016 54.26053237915039 77.93804168701172 54.58053207397461 78.69804382324219 54.58053207397461 C 79.45804595947266 54.58053207397461 80.03471374511719 54.290531158447266 80.42804718017578 53.710533142089844 C 80.82138061523438 53.12386703491211 81.0180435180664 52.277198791503906 81.0180435180664 51.1705322265625 ZM 92.10554504394531 54.68053436279297 C 90.85887145996094 56.24720001220703 89.77887725830078 57.03053283691406 88.86553955078125 57.03053283691406 C 87.72554016113281 57.03053283691406 86.79220581054688 56.56719970703125 86.06554412841797 55.640533447265625 C 85.33887481689453 54.7138671875 84.97554016113281 53.52053451538086 84.97554016113281 52.06053161621094 C 84.97554016113281 50.06053161621094 85.53221130371094 48.37386703491211 86.64553833007812 47.00053405761719 C 87.75887298583984 45.62053298950195 89.12220764160156 44.93053436279297 90.73554229736328 44.93053436279297 L 92.0755386352539 45.130531311035156 L 92.0755386352539 44.6705322265625 L 91.79553985595703 39.050533294677734 L 95.0755386352539 38.450531005859375 L 94.76554107666016 50.79053497314453 L 94.76554107666016 52.90053176879883 C 94.76554107666016 53.86053466796875 95.00553894042969 54.9638671875 95.48554229736328 56.210533142089844 L 92.89553833007812 57.290531158447266 C 92.42887878417969 56.33053207397461 92.16554260253906 55.460533142089844 92.10554504394531 54.68053436279297 M 87.66554260253906 50.81053161621094 C 87.66554260253906 50.81053161621094 87.66554260253906 51.06719970703125 87.66554260253906 51.58053207397461 C 87.66554260253906 52.09386444091797 87.85221099853516 52.63719940185547 88.22554016113281 53.210533142089844 C 88.60554504394531 53.790531158447266 89.14887237548828 54.08053207397461 89.85554504394531 54.08053207397461 C 90.56887817382812 54.08053207397461 91.30887603759766 53.790531158447266 92.0755386352539 53.210533142089844 L 92.0755386352539 48.03053283691406 C 91.11553955078125 47.83720016479492 90.4055404663086 47.74053192138672 89.94554138183594 47.74053192138672 C 89.22554016113281 47.74053192138672 88.66554260253906 47.99720001220703 88.26554107666016 48.51053237915039 C 87.86553955078125 49.02386474609375 87.66554260253906 49.79053497314453 87.66554260253906 50.81053161621094 ZM 107.24884796142578 40.47053527832031 C 108.78218078613281 40.47053527832031 109.99884796142578 40.81719970703125 110.89884948730469 41.51053237915039 C 111.79218292236328 42.210533142089844 112.23885345458984 43.14386749267578 112.23885345458984 44.31053161621094 C 112.23885345458984 46.183868408203125 111.47218322753906 47.48719787597656 109.93885040283203 48.22053146362305 C 112.01885223388672 48.94053268432617 113.05885314941406 50.270530700683594 113.05885314941406 52.210533142089844 C 113.05885314941406 53.66386795043945 112.43218231201172 54.87386703491211 111.17884826660156 55.84053421020508 C 109.93218231201172 56.80720138549805 108.36551666259766 57.290531158447266 106.47885131835938 57.290531158447266 C 105.48551940917969 57.290531158447266 104.0055160522461 57.20386505126953 102.03884887695312 57.03053283691406 L 102.32884979248047 51.200531005859375 L 102.03884887695312 40.47053527832031 L 107.24884796142578 40.47053527832031 M 106.93885040283203 49.90053176879883 L 104.98885345458984 49.90053176879883 L 104.9688491821289 50.79053497314453 L 105.13884735107422 54.700531005859375 C 106.06552124023438 54.78053283691406 106.77552032470703 54.820533752441406 107.26885223388672 54.820533752441406 C 108.11551666259766 54.820533752441406 108.77552032470703 54.61053466796875 109.24884796142578 54.19053268432617 C 109.72218322753906 53.76386642456055 109.95884704589844 53.14386749267578 109.95884704589844 52.33053207397461 C 109.95884704589844 51.51053237915039 109.7188491821289 50.90053176879883 109.23885345458984 50.50053405761719 C 108.75885009765625 50.10053253173828 107.9921875 49.90053176879883 106.93885040283203 49.90053176879883 M 106.37885284423828 42.890533447265625 L 105.20884704589844 42.890533447265625 L 105.05885314941406 47.570533752441406 L 106.61885070800781 47.570533752441406 C 107.43885040283203 47.570533752441406 108.06552124023438 47.35053253173828 108.49884796142578 46.9105339050293 C 108.9255142211914 46.47053146362305 109.13885498046875 45.84386444091797 109.13885498046875 45.03053283691406 C 109.13885498046875 43.60386657714844 108.2188491821289 42.890533447265625 106.37885284423828 42.890533447265625 ZM 114.70823669433594 52.01053237915039 C 114.70823669433594 49.9638671875 115.2615737915039 48.230533599853516 116.36824035644531 46.81053161621094 C 117.4682388305664 45.38386535644531 118.75823974609375 44.6705322265625 120.23823547363281 44.6705322265625 C 121.7182388305664 44.6705322265625 122.87157440185547 45.15053176879883 123.6982421875 46.11053466796875 C 124.52490234375 47.070533752441406 124.93824005126953 48.34386444091797 124.93824005126953 49.93053436279297 C 124.93824005126953 52.037200927734375 124.4049072265625 53.790531158447266 123.33824157714844 55.19053268432617 C 122.27157592773438 56.59053421020508 120.93157196044922 57.290531158447266 119.3182373046875 57.290531158447266 C 117.99156951904297 57.290531158447266 116.89157104492188 56.790531158447266 116.01824188232422 55.790531158447266 C 115.14490509033203 54.790531158447266 114.70823669433594 53.53053283691406 114.70823669433594 52.01053237915039 M 122.24823760986328 51.1705322265625 C 122.24823760986328 48.85053253173828 121.45490264892578 47.69053268432617 119.86824035644531 47.69053268432617 C 118.22157287597656 47.69053268432617 117.39823913574219 48.78053283691406 117.39823913574219 50.960533142089844 C 117.39823913574219 52.09386444091797 117.6315689086914 52.980533599853516 118.09823608398438 53.62053298950195 C 118.55823516845703 54.26053237915039 119.1682357788086 54.58053207397461 119.92823791503906 54.58053207397461 C 120.68824005126953 54.58053207397461 121.26490783691406 54.290531158447266 121.65824127197266 53.710533142089844 C 122.05157470703125 53.12386703491211 122.24823760986328 52.277198791503906 122.24823760986328 51.1705322265625 ZM 137.70574951171875 54.03053283691406 L 138.0157470703125 54.03053283691406 L 138.78573608398438 50.74053192138672 L 140.02574157714844 44.81053161621094 L 142.95574951171875 45.1705322265625 L 141.20574951171875 51.130531311035156 L 139.74574279785156 56.74053192138672 L 135.8057403564453 57.10053253173828 L 134.48574829101562 51.270530700683594 L 134.36573791503906 50.890533447265625 L 132.7557373046875 56.74053192138672 L 128.94573974609375 57.10053253173828 L 127.54574584960938 51.270530700683594 L 125.89574432373047 45.44053268432617 L 129.03573608398438 44.84053421020508 L 130.02574157714844 50.12053298950195 L 130.8857421875 54.03053283691406 L 131.19573974609375 54.03053283691406 L 133.2657470703125 47.19053268432617 L 132.7557373046875 45.44053268432617 L 135.85574340820312 44.84053421020508 L 136.86573791503906 50.12053298950195 L 137.70574951171875 54.03053283691406 ZM 147.82896423339844 38.450531005859375 L 147.5189666748047 50.79053497314453 L 147.7789764404297 56.43053436279297 L 144.53897094726562 57.03053283691406 L 144.82896423339844 51.200531005859375 L 144.53897094726562 39.050533294677734 L 147.82896423339844 38.450531005859375 Z" transform="matrix(1.0141023397445679, 0, 0, 1.320268154144287, -7.213932037353516, -28.22244644165039)" style="fill: rgb(255, 251, 240); white-space: pre; color: rgb(255, 251, 240);"/></svg>