<?xml version="1.0" encoding="utf-8"?>
<svg id="master-artboard" viewBox="0 0 200 50" version="1.1" xmlns="http://www.w3.org/2000/svg" x="0px" y="0px" style="enable-background:new 0 0 336 235.2;" width="200px" height="50px"><rect id="ee-background" x="0" y="0" width="200" height="50" style="fill: rgb(55, 255, 41); fill-opacity: 0; pointer-events: none;"/><defs><style id="style-1">@import url(https://fonts.googleapis.com/css?family=Acme:400);</style><style id="ee-google-fonts">@import url(https://fonts.googleapis.com/css?family=Acme:400);</style></defs>





















































































































































<g transform="matrix(0.29098014145452133, 0, 0, 0.29783959388904885, -82.47262463896925, -27.18707737925866)"><g transform="matrix(1, 0, 0, 1, 0, 0)"><path class="st5" d="M382.7,170.6l61.4,60.6c4.6,4.6,7,9.1,7,13.4c0,3.1-1,5.7-2.9,7.6c-2,2-4.5,2.9-7.6,2.9&#10;&#9;&#9;c-4.3,0-8.4-1.9-12.4-5.8L377.4,202c-6.1-2.6-11.4-5.7-15.7-9.4c-2.9,3.3-8,10.1-15.5,20.4c-7.1,9.8-12.1,16.4-15,19.9&#10;&#9;&#9;c-7.2,7.9-13.2,13.6-18.1,16.9c-4.8,3.4-9.3,5.1-13.4,5.1c-3.9,0-7.1-0.9-9.5-2.8c-2.4-1.9-3.6-4.5-3.6-7.8&#10;&#9;&#9;c0-6.3,3.6-13.5,10.7-21.4c7.1-7.9,19.9-18.2,38.3-30.8c7.8-5.3,12.7-8.8,14.7-10.7L298,129.8c-7.9-7.7-11.9-15.4-11.9-23.2&#10;&#9;&#9;c0-3.6,1.2-6.7,3.6-9c2.4-2.4,5.3-3.6,8.8-3.6c4.1,0,7.9,1.7,11.3,5.1l62.4,61.3c1.4-1.1,4.5-4.1,9.4-8.8c-2.6-3.9-4-8.2-4-13&#10;&#9;&#9;c0-3.1,0.8-6,2.4-8.7c1.6-2.6,6-7.3,13.3-14c8.8-8.1,16.4-15.5,22.7-22l4.4,4.2l-25,24.9c-2.8,2.9-4.2,5.6-4.2,8.1&#10;&#9;&#9;c0,1.7,0.6,3.1,1.9,4.2c1.2,1.1,2.8,1.7,4.8,1.7c2.9,0,5.7-1.3,8.3-4l24.9-24.3l4.2,4.2L411.4,137c-3,3-4.5,6-4.5,9.1&#10;&#9;&#9;c0,1.9,0.6,3.4,1.8,4.6c1.2,1.2,2.6,1.8,4.3,1.8c2.7,0,5.5-1.4,8.2-4.1l25.1-24.4l4.4,4.2c-2.9,2.6-6.9,6.6-12.2,11.9&#10;&#9;&#9;C427.7,151,420,157.9,415.5,161c-4.5,3.1-8.3,4.6-11.3,4.6c-3.4,0-7.4-1.4-12-4.3L382.7,170.6z M381.2,178l-76.3-74.9&#10;&#9;&#9;c-2.1-2.3-4.3-3.4-6.5-3.4c-1.7,0-3.1,0.7-4.1,2.1c-1,1.4-1.5,3.1-1.5,5.3c0,5.8,2,10.8,6.1,14.9l67.9,67.1&#10;&#9;&#9;c3.1,3.1,6.3,4.6,9.4,4.6c2.3,0,4.2-0.8,5.8-2.4c1.6-1.6,2.3-3.5,2.3-5.7v-0.9C384.3,182.2,383.2,180,381.2,178" style="fill: rgb(255, 255, 255);" transform="matrix(1, 0, 0, 1, 0, 0)"/></g></g><path d="M 87.44654846191406 36.081932067871094 L 82.3365478515625 36.081932067871094 L 82.19654846191406 40.49192810058594 L 86.77654266357422 40.49192810058594 L 86.51654052734375 43.04193115234375 L 82.12654113769531 43.04193115234375 L 82.09654235839844 43.831932067871094 L 82.38654327392578 50.071929931640625 L 79.02654266357422 50.071929931640625 L 79.31654357910156 44.24192810058594 L 79.02654266357422 33.511932373046875 L 87.71654510498047 33.511932373046875 L 87.44654846191406 36.081932067871094 ZM 88.3841552734375 45.05192947387695 C 88.3841552734375 43.00526428222656 88.93749237060547 41.27193069458008 90.04415893554688 39.8519287109375 C 91.14415740966797 38.425262451171875 92.43415832519531 37.71192932128906 93.91415405273438 37.71192932128906 C 95.39415740966797 37.71192932128906 96.54749298095703 38.19192886352539 97.37416076660156 39.15193176269531 C 98.20082092285156 40.11193084716797 98.6141586303711 41.38526153564453 98.6141586303711 42.97193145751953 C 98.6141586303711 45.07859802246094 98.08082580566406 46.83192825317383 97.01416015625 48.231929779052734 C 95.94749450683594 49.63193130493164 94.60749053955078 50.33192825317383 92.99415588378906 50.33192825317383 C 91.66748809814453 50.33192825317383 90.56748962402344 49.83192825317383 89.69416046142578 48.83192825317383 C 88.8208236694336 47.83192825317383 88.3841552734375 46.571929931640625 88.3841552734375 45.05192947387695 M 95.92415618896484 44.21192932128906 C 95.92415618896484 41.891929626464844 95.13082122802734 40.731929779052734 93.54415893554688 40.731929779052734 C 91.89749145507812 40.731929779052734 91.07415771484375 41.821929931640625 91.07415771484375 44.001930236816406 C 91.07415771484375 45.13526153564453 91.30748748779297 46.02193069458008 91.77415466308594 46.661930084228516 C 92.2341537475586 47.30192947387695 92.84415435791016 47.62192916870117 93.60415649414062 47.62192916870117 C 94.3641586303711 47.62192916870117 94.94082641601562 47.33192825317383 95.33415985107422 46.751930236816406 C 95.72749328613281 46.16526412963867 95.92415618896484 45.31859588623047 95.92415618896484 44.21192932128906 ZM 99.95172119140625 45.05192947387695 C 99.95172119140625 43.00526428222656 100.50505828857422 41.27193069458008 101.61172485351562 39.8519287109375 C 102.71172332763672 38.425262451171875 104.00172424316406 37.71192932128906 105.48171997070312 37.71192932128906 C 106.96172332763672 37.71192932128906 108.11505889892578 38.19192886352539 108.94172668457031 39.15193176269531 C 109.76838684082031 40.11193084716797 110.18172454833984 41.38526153564453 110.18172454833984 42.97193145751953 C 110.18172454833984 45.07859802246094 109.64839172363281 46.83192825317383 108.58172607421875 48.231929779052734 C 107.51506042480469 49.63193130493164 106.17505645751953 50.33192825317383 104.56172180175781 50.33192825317383 C 103.23505401611328 50.33192825317383 102.13505554199219 49.83192825317383 101.26172637939453 48.83192825317383 C 100.38838958740234 47.83192825317383 99.95172119140625 46.571929931640625 99.95172119140625 45.05192947387695 M 107.4917221069336 44.21192932128906 C 107.4917221069336 41.891929626464844 106.6983871459961 40.731929779052734 105.11172485351562 40.731929779052734 C 103.46505737304688 40.731929779052734 102.6417236328125 41.821929931640625 102.6417236328125 44.001930236816406 C 102.6417236328125 45.13526153564453 102.87505340576172 46.02193069458008 103.34172058105469 46.661930084228516 C 103.80171966552734 47.30192947387695 104.4117202758789 47.62192916870117 105.17172241210938 47.62192916870117 C 105.93172454833984 47.62192916870117 106.50839233398438 47.33192825317383 106.90172576904297 46.751930236816406 C 107.29505920410156 46.16526412963867 107.4917221069336 45.31859588623047 107.4917221069336 44.21192932128906 ZM 118.57930755615234 47.72193145751953 C 117.33263397216797 49.288597106933594 116.25263977050781 50.071929931640625 115.33930206298828 50.071929931640625 C 114.19930267333984 50.071929931640625 113.2659683227539 49.60859680175781 112.539306640625 48.68193054199219 C 111.81263732910156 47.75526428222656 111.44930267333984 46.56193161010742 111.44930267333984 45.1019287109375 C 111.44930267333984 43.1019287109375 112.00597381591797 41.41526412963867 113.11930084228516 40.04193115234375 C 114.23263549804688 38.661930084228516 115.5959701538086 37.97193145751953 117.20930480957031 37.97193145751953 L 118.54930114746094 38.17192840576172 L 118.54930114746094 37.71192932128906 L 118.26930236816406 32.0919303894043 L 121.54930114746094 31.49193000793457 L 121.23930358886719 43.831932067871094 L 121.23930358886719 45.94192886352539 C 121.23930358886719 46.90193176269531 121.47930145263672 48.00526428222656 121.95930480957031 49.251930236816406 L 119.36930847167969 50.33192825317383 C 118.90263366699219 49.37192916870117 118.6393051147461 48.501930236816406 118.57930755615234 47.72193145751953 M 114.1393051147461 43.8519287109375 C 114.1393051147461 43.8519287109375 114.1393051147461 44.10859680175781 114.1393051147461 44.62192916870117 C 114.1393051147461 45.13526153564453 114.32597351074219 45.67859649658203 114.69930267333984 46.251930236816406 C 115.07930755615234 46.83192825317383 115.62263488769531 47.12192916870117 116.32930755615234 47.12192916870117 C 117.04264068603516 47.12192916870117 117.78263854980469 46.83192825317383 118.54930114746094 46.251930236816406 L 118.54930114746094 41.071929931640625 C 117.58930206298828 40.878597259521484 116.87930297851562 40.78192901611328 116.41930389404297 40.78192901611328 C 115.69930267333984 40.78192901611328 115.1393051147461 41.038597106933594 114.73930358886719 41.55192947387695 C 114.33930206298828 42.06526184082031 114.1393051147461 42.831932067871094 114.1393051147461 43.8519287109375 ZM 133.72271728515625 33.511932373046875 C 135.2560577392578 33.511932373046875 136.47271728515625 33.85859680175781 137.3727264404297 34.55192947387695 C 138.26605224609375 35.251930236816406 138.7127227783203 36.185264587402344 138.7127227783203 37.3519287109375 C 138.7127227783203 39.22526550292969 137.94606018066406 40.528594970703125 136.4127197265625 41.26192855834961 C 138.4927215576172 41.981929779052734 139.53271484375 43.311927795410156 139.53271484375 45.251930236816406 C 139.53271484375 46.705265045166016 138.9060516357422 47.91526412963867 137.65272521972656 48.88193130493164 C 136.4060516357422 49.84859848022461 134.83938598632812 50.33192825317383 132.9527130126953 50.33192825317383 C 131.95938110351562 50.33192825317383 130.47938537597656 50.245262145996094 128.51272583007812 50.071929931640625 L 128.80271911621094 44.24192810058594 L 128.51272583007812 33.511932373046875 L 133.72271728515625 33.511932373046875 M 133.4127197265625 42.94192886352539 L 131.4627227783203 42.94192886352539 L 131.44271850585938 43.831932067871094 L 131.6127166748047 47.74192810058594 C 132.5393829345703 47.821929931640625 133.2493896484375 47.86193084716797 133.7427215576172 47.86193084716797 C 134.58938598632812 47.86193084716797 135.2493896484375 47.65193176269531 135.72271728515625 47.231929779052734 C 136.19606018066406 46.80526351928711 136.43272399902344 46.185264587402344 136.43272399902344 45.37192916870117 C 136.43272399902344 44.55192947387695 136.19271850585938 43.94192886352539 135.7127227783203 43.54193115234375 C 135.23272705078125 43.141929626464844 134.46604919433594 42.94192886352539 133.4127197265625 42.94192886352539 M 132.85272216796875 35.93193054199219 L 131.68272399902344 35.93193054199219 L 131.53271484375 40.61193084716797 L 133.09271240234375 40.61193084716797 C 133.9127197265625 40.61193084716797 134.5393829345703 40.391929626464844 134.97271728515625 39.95193099975586 C 135.39938354492188 39.51192855834961 135.6127166748047 38.88526153564453 135.6127166748047 38.071929931640625 C 135.6127166748047 36.645263671875 134.69271850585938 35.93193054199219 132.85272216796875 35.93193054199219 ZM 141.1822052001953 45.05192947387695 C 141.1822052001953 43.00526428222656 141.73553466796875 41.27193069458008 142.8422088623047 39.8519287109375 C 143.94219970703125 38.425262451171875 145.23220825195312 37.71192932128906 146.7122039794922 37.71192932128906 C 148.19219970703125 37.71192932128906 149.3455352783203 38.19192886352539 150.17221069335938 39.15193176269531 C 150.99887084960938 40.11193084716797 151.41220092773438 41.38526153564453 151.41220092773438 42.97193145751953 C 151.41220092773438 45.07859802246094 150.87887573242188 46.83192825317383 149.8122100830078 48.231929779052734 C 148.74554443359375 49.63193130493164 147.40554809570312 50.33192825317383 145.79220581054688 50.33192825317383 C 144.46554565429688 50.33192825317383 143.36553955078125 49.83192825317383 142.49220275878906 48.83192825317383 C 141.61888122558594 47.83192825317383 141.1822052001953 46.571929931640625 141.1822052001953 45.05192947387695 M 148.7222137451172 44.21192932128906 C 148.7222137451172 41.891929626464844 147.9288787841797 40.731929779052734 146.3422088623047 40.731929779052734 C 144.69554138183594 40.731929779052734 143.87220764160156 41.821929931640625 143.87220764160156 44.001930236816406 C 143.87220764160156 45.13526153564453 144.1055450439453 46.02193069458008 144.57220458984375 46.661930084228516 C 145.03221130371094 47.30192947387695 145.6422119140625 47.62192916870117 146.40220642089844 47.62192916870117 C 147.16220092773438 47.62192916870117 147.73887634277344 47.33192825317383 148.1322021484375 46.751930236816406 C 148.52554321289062 46.16526412963867 148.7222137451172 45.31859588623047 148.7222137451172 44.21192932128906 ZM 164.17977905273438 47.071929931640625 L 164.48977661132812 47.071929931640625 L 165.259765625 43.78192901611328 L 166.49977111816406 37.8519287109375 L 169.42977905273438 38.21192932128906 L 167.67977905273438 44.17192840576172 L 166.2197723388672 49.78192901611328 L 162.27976989746094 50.141929626464844 L 160.95977783203125 44.311927795410156 L 160.8397674560547 43.93193054199219 L 159.22976684570312 49.78192901611328 L 155.41976928710938 50.141929626464844 L 154.019775390625 44.311927795410156 L 152.36976623535156 38.481929779052734 L 155.509765625 37.88193130493164 L 156.49977111816406 43.161930084228516 L 157.35977172851562 47.071929931640625 L 157.66976928710938 47.071929931640625 L 159.73977661132812 40.231929779052734 L 159.22976684570312 38.481929779052734 L 162.32977294921875 37.88193130493164 L 163.3397674560547 43.161930084228516 L 164.17977905273438 47.071929931640625 ZM 174.30313110351562 31.49193000793457 L 173.99313354492188 43.831932067871094 L 174.25314331054688 49.47193145751953 L 171.0131378173828 50.071929931640625 L 171.30313110351562 44.24192810058594 L 171.0131378173828 32.0919303894043 L 174.30313110351562 31.49193000793457 Z" transform="matrix(1.546898365020752, 0, 0, 1.546898365020752, -72.08638763427734, -41.26681137084961)" style="fill: rgb(255, 255, 255); white-space: pre; color: rgb(255, 255, 255);"/><path d="M 113.13002014160156 65.156005859375 L 113.39002227783203 62.39601135253906 L 124.79002380371094 62.39601135253906 L 124.53002166748047 65.156005859375 L 120.35002136230469 64.79600524902344 L 120.26001739501953 72.71601104736328 L 120.55001831054688 78.95600891113281 L 117.19001770019531 78.95600891113281 L 117.47001647949219 73.12600708007812 L 117.38002014160156 64.81600952148438 L 113.13002014160156 65.156005859375 ZM 133.19178771972656 72.8860092163086 C 133.19178771972656 71.77934265136719 133.09512329101562 71.04267883300781 132.9017791748047 70.67601013183594 C 132.7084503173828 70.30934143066406 132.26177978515625 70.12600708007812 131.56178283691406 70.12600708007812 C 130.85511779785156 70.12600708007812 130.05511474609375 70.406005859375 129.1617889404297 70.96601104736328 L 129.1617889404297 72.71601104736328 L 129.42178344726562 78.35601043701172 L 126.1817855834961 78.95600891113281 L 126.47178649902344 73.12600708007812 L 126.1817855834961 60.976009368896484 L 129.47178649902344 60.376007080078125 L 129.1617889404297 66.59600830078125 L 129.1617889404297 69.406005859375 C 129.4017791748047 69.08600616455078 129.67178344726562 68.77267456054688 129.97178649902344 68.46601104736328 C 130.27845764160156 68.16600799560547 130.7517852783203 67.82267761230469 131.39178466796875 67.43600463867188 C 132.0317840576172 67.0493392944336 132.71511840820312 66.85601043701172 133.44178771972656 66.85601043701172 C 134.16845703125 66.85601043701172 134.7817840576172 67.1426773071289 135.2817840576172 67.71601104736328 C 135.77511596679688 68.28267669677734 136.02178955078125 69.05267333984375 136.02178955078125 70.02600860595703 L 135.8817901611328 72.71601104736328 L 136.14178466796875 78.47600555419922 L 132.9017791748047 79.07601165771484 L 133.19178771972656 72.8860092163086 ZM 143.099365234375 76.50601196289062 C 143.56602478027344 76.50601196289062 144.0560302734375 76.3860092163086 144.56935119628906 76.14601135253906 C 145.07601928710938 75.906005859375 145.4760284423828 75.66600799560547 145.7693634033203 75.42601013183594 L 146.19935607910156 75.06600952148438 L 147.2993621826172 76.41600799560547 C 147.1393585205078 76.68267822265625 146.89268493652344 76.99267578125 146.55935668945312 77.34600830078125 C 146.2193603515625 77.6993408203125 145.87936401367188 77.99934387207031 145.5393524169922 78.24600982666016 C 145.19268798828125 78.49267578125 144.73602294921875 78.71601104736328 144.1693572998047 78.91600799560547 C 143.60269165039062 79.11601257324219 143.01602172851562 79.21601104736328 142.40936279296875 79.21601104736328 C 141.10935974121094 79.21601104736328 140.0526885986328 78.72600555419922 139.23936462402344 77.74600982666016 C 138.4193572998047 76.75933837890625 138.0093536376953 75.48934173583984 138.0093536376953 73.9360122680664 C 138.0093536376953 71.98934173583984 138.57936096191406 70.27934265136719 139.7193603515625 68.8060073852539 C 140.85269165039062 67.33267211914062 142.17935180664062 66.59600830078125 143.69935607910156 66.59600830078125 C 144.86602783203125 66.59600830078125 145.77603149414062 66.92267608642578 146.42935180664062 67.57601165771484 C 147.07601928710938 68.23600769042969 147.39935302734375 69.156005859375 147.39935302734375 70.33600616455078 C 147.39935302734375 71.04267883300781 147.27935791015625 71.8426742553711 147.0393524169922 72.73600769042969 L 146.55935668945312 73.24600982666016 L 140.55935668945312 73.79600524902344 C 140.8326873779297 75.60267639160156 141.67935180664062 76.50601196289062 143.099365234375 76.50601196289062 M 143.099365234375 69.06600952148438 C 142.39935302734375 69.06600952148438 141.80935668945312 69.3493423461914 141.32936096191406 69.91600799560547 C 140.849365234375 70.48934173583984 140.56935119628906 71.21601104736328 140.48936462402344 72.09600830078125 L 144.56935119628906 71.58600616455078 C 144.61602783203125 71.21934509277344 144.6393585205078 70.91600799560547 144.6393585205078 70.67601013183594 C 144.6393585205078 69.60267639160156 144.1260223388672 69.06600952148438 143.099365234375 69.06600952148438 ZM 166.40658569335938 62.34600830078125 L 166.0865936279297 72.71601104736328 L 166.35659790039062 78.42601013183594 L 163.52659606933594 79.02600860595703 L 156.36659240722656 67.45600891113281 L 156.36659240722656 72.71601104736328 L 156.7065887451172 78.95600891113281 L 153.7065887451172 78.95600891113281 L 153.99659729003906 73.12600708007812 L 153.7065887451172 62.46601104736328 L 156.5865936279297 62.326011657714844 L 163.71658325195312 74.0560073852539 L 163.47659301757812 62.70600891113281 L 166.40658569335938 62.34600830078125 ZM 168.9894256591797 73.9360122680664 C 168.9894256591797 71.88934326171875 169.54275512695312 70.156005859375 170.64942932128906 68.73600769042969 C 171.74942016601562 67.30934143066406 173.0394287109375 66.59600830078125 174.51942443847656 66.59600830078125 C 175.99942016601562 66.59600830078125 177.1527557373047 67.07601165771484 177.97943115234375 68.0360107421875 C 178.80609130859375 68.99600982666016 179.21942138671875 70.26934051513672 179.21942138671875 71.85601043701172 C 179.21942138671875 73.96267700195312 178.68609619140625 75.71601104736328 177.6194305419922 77.11601257324219 C 176.55276489257812 78.51600646972656 175.2127685546875 79.21601104736328 173.59942626953125 79.21601104736328 C 172.27276611328125 79.21601104736328 171.17276000976562 78.71601104736328 170.29942321777344 77.71601104736328 C 169.4261016845703 76.71601104736328 168.9894256591797 75.45600891113281 168.9894256591797 73.9360122680664 M 176.52943420410156 73.09600830078125 C 176.52943420410156 70.77600860595703 175.73609924316406 69.61601257324219 174.14942932128906 69.61601257324219 C 172.5027618408203 69.61601257324219 171.67942810058594 70.70600891113281 171.67942810058594 72.8860092163086 C 171.67942810058594 74.01934051513672 171.9127655029297 74.906005859375 172.37942504882812 75.54600524902344 C 172.8394317626953 76.1860122680664 173.44943237304688 76.50601196289062 174.2094268798828 76.50601196289062 C 174.96942138671875 76.50601196289062 175.5460968017578 76.21601104736328 175.93942260742188 75.6360092163086 C 176.332763671875 75.0493392944336 176.52943420410156 74.20267486572266 176.52943420410156 73.09600830078125 ZM 181.0152130126953 67.36601257324219 L 183.9152069091797 66.73600769042969 C 184.06187438964844 67.96934509277344 184.15853881835938 69.13934326171875 184.20521545410156 70.24600982666016 C 185.65853881835938 67.98600769042969 187.02520751953125 66.85601043701172 188.30520629882812 66.85601043701172 L 188.0452117919922 70.60601043701172 C 187.11854553222656 70.60601043701172 186.3852081298828 70.68934631347656 185.84521484375 70.85601043701172 C 185.31187438964844 71.02267456054688 184.7652130126953 71.35601043701172 184.20521545410156 71.85601043701172 L 184.20521545410156 72.71601104736328 L 184.4652099609375 78.35601043701172 L 181.2552032470703 78.95600891113281 L 181.5452117919922 73.12600708007812 C 181.47854614257812 70.97933959960938 181.3018798828125 69.05934143066406 181.0152130126953 67.36601257324219 ZM 190.757568359375 67.33600616455078 L 190.757568359375 64.72601318359375 L 193.99757385253906 64.09600830078125 L 193.68756103515625 67.33600616455078 L 196.5875701904297 67.33600616455078 L 196.3275604248047 69.3060073852539 L 193.5875701904297 69.3060073852539 L 193.46755981445312 74.32601165771484 C 193.46755981445312 75.079345703125 193.5408935546875 75.579345703125 193.68756103515625 75.82601165771484 C 193.8275604248047 76.07267761230469 194.0908966064453 76.19600677490234 194.47756958007812 76.19600677490234 C 194.85755920410156 76.19600677490234 195.36756896972656 76.10934448242188 196.007568359375 75.9360122680664 L 196.15756225585938 77.6360092163086 C 195.09756469726562 78.51600646972656 194.16757202148438 78.95600891113281 193.36756896972656 78.95600891113281 C 192.56756591796875 78.95600891113281 191.9142303466797 78.66267395019531 191.40756225585938 78.07601165771484 C 190.89422607421875 77.49600982666016 190.6375732421875 76.73267364501953 190.6375732421875 75.7860107421875 L 190.77757263183594 73.09600830078125 L 190.757568359375 69.3060073852539 L 189.09756469726562 69.3060073852539 L 189.36756896972656 67.33600616455078 L 190.757568359375 67.33600616455078 ZM 205.34591674804688 72.8860092163086 C 205.34591674804688 71.77934265136719 205.24925231933594 71.04267883300781 205.05592346191406 70.67601013183594 C 204.8625946044922 70.30934143066406 204.41592407226562 70.12600708007812 203.71592712402344 70.12600708007812 C 203.00926208496094 70.12600708007812 202.20925903320312 70.406005859375 201.31591796875 70.96601104736328 L 201.31591796875 72.71601104736328 L 201.575927734375 78.35601043701172 L 198.33592224121094 78.95600891113281 L 198.62591552734375 73.12600708007812 L 198.33592224121094 60.976009368896484 L 201.62591552734375 60.376007080078125 L 201.31591796875 66.59600830078125 L 201.31591796875 69.406005859375 C 201.55592346191406 69.08600616455078 201.825927734375 68.77267456054688 202.12591552734375 68.46601104736328 C 202.43258666992188 68.16600799560547 202.9059295654297 67.82267761230469 203.54592895507812 67.43600463867188 C 204.18592834472656 67.0493392944336 204.8692626953125 66.85601043701172 205.59591674804688 66.85601043701172 C 206.3225860595703 66.85601043701172 206.93592834472656 67.1426773071289 207.43592834472656 67.71601104736328 C 207.92926025390625 68.28267669677734 208.17591857910156 69.05267333984375 208.17591857910156 70.02600860595703 L 208.03591918945312 72.71601104736328 L 208.29592895507812 78.47600555419922 L 205.05592346191406 79.07601165771484 L 205.34591674804688 72.8860092163086 ZM 210.91351318359375 63.976009368896484 L 213.5235137939453 63.73600769042969 C 213.17684936523438 65.88267517089844 212.67352294921875 67.83600616455078 212.01351928710938 69.59600830078125 L 210.64352416992188 69.52600860595703 C 210.82351684570312 67.50601196289062 210.91351318359375 65.656005859375 210.91351318359375 63.976009368896484 ZM 219.1946258544922 76.72600555419922 C 220.0212860107422 76.72600555419922 220.4346160888672 76.35601043701172 220.4346160888672 75.61601257324219 C 220.4346160888672 75.36267852783203 220.25462341308594 75.12267303466797 219.89462280273438 74.89601135253906 C 219.5346221923828 74.67601013183594 219.09461975097656 74.45267486572266 218.57461547851562 74.22600555419922 C 218.05462646484375 74.00601196289062 217.5346221923828 73.75601196289062 217.01461791992188 73.47600555419922 C 216.49462890625 73.19600677490234 216.05462646484375 72.8060073852539 215.6946258544922 72.3060073852539 C 215.33462524414062 71.81267547607422 215.1546173095703 71.24600982666016 215.1546173095703 70.60601043701172 C 215.1546173095703 69.53267669677734 215.62796020507812 68.59600830078125 216.57461547851562 67.79600524902344 C 217.5212860107422 66.99600982666016 218.6079559326172 66.59600830078125 219.83462524414062 66.59600830078125 C 220.4146270751953 66.59600830078125 220.98129272460938 66.66267395019531 221.5346221923828 66.79600524902344 C 222.08128356933594 66.93600463867188 222.6112823486328 67.14934539794922 223.12461853027344 67.43600463867188 L 221.51461791992188 70.36601257324219 C 221.407958984375 70.26600646972656 221.26461791992188 70.14601135253906 221.08462524414062 70.00601196289062 C 220.91128540039062 69.85934448242188 220.58128356933594 69.66934204101562 220.09461975097656 69.43600463867188 C 219.60128784179688 69.20934295654297 219.16795349121094 69.09600830078125 218.79461669921875 69.09600830078125 C 218.42129516601562 69.09600830078125 218.13462829589844 69.1793441772461 217.9346160888672 69.34600830078125 C 217.734619140625 69.5126724243164 217.63462829589844 69.74267578125 217.63462829589844 70.0360107421875 C 217.63462829589844 70.33600616455078 217.907958984375 70.63267517089844 218.45462036132812 70.92601013183594 C 219.00794982910156 71.22600555419922 219.6146240234375 71.49934387207031 220.27462768554688 71.74600982666016 C 220.92794799804688 71.99267578125 221.53128051757812 72.39934539794922 222.08462524414062 72.96601104736328 C 222.63795471191406 73.53267669677734 222.9146270751953 74.20934295654297 222.9146270751953 74.99600982666016 C 222.9146270751953 76.11601257324219 222.45462036132812 77.0993423461914 221.5346221923828 77.94600677490234 C 220.6146240234375 78.79267883300781 219.55462646484375 79.21601104736328 218.3546142578125 79.21601104736328 C 217.58128356933594 79.21601104736328 216.8646240234375 79.0493392944336 216.20462036132812 78.71601104736328 C 215.53794860839844 78.38267517089844 215.06129455566406 78.04600524902344 214.77462768554688 77.70600891113281 L 214.34461975097656 77.20600891113281 L 216.234619140625 74.99600982666016 C 216.33462524414062 75.12267303466797 216.47128295898438 75.28267669677734 216.64462280273438 75.47600555419922 C 216.82461547851562 75.66934204101562 217.17462158203125 75.92601013183594 217.6946258544922 76.24600982666016 C 218.21461486816406 76.56600952148438 218.71461486816406 76.72600555419922 219.1946258544922 76.72600555419922 ZM 227.3240966796875 65.156005859375 L 227.58409118652344 62.39601135253906 L 238.98410034179688 62.39601135253906 L 238.72409057617188 65.156005859375 L 234.54409790039062 64.79600524902344 L 234.4541015625 72.71601104736328 L 234.7440948486328 78.95600891113281 L 231.38409423828125 78.95600891113281 L 231.66409301757812 73.12600708007812 L 231.5740966796875 64.81600952148438 L 227.3240966796875 65.156005859375 ZM 242.77586364746094 78.95600891113281 C 241.83587646484375 78.95600891113281 241.0658721923828 78.656005859375 240.4658660888672 78.0560073852539 C 239.86587524414062 77.45600891113281 239.5658721923828 76.64934539794922 239.5658721923828 75.6360092163086 C 239.5658721923828 74.61601257324219 240.02920532226562 73.73600769042969 240.95587158203125 72.99600982666016 C 241.88253784179688 72.24934387207031 243.0092010498047 71.87600708007812 244.33587646484375 71.87600708007812 L 245.9658660888672 71.87600708007812 L 245.9658660888672 71.46601104736328 C 245.9658660888672 70.68600463867188 245.80587768554688 70.14934539794922 245.48587036132812 69.85601043701172 C 245.16586303710938 69.56934356689453 244.5658721923828 69.42601013183594 243.6858673095703 69.42601013183594 C 243.31919860839844 69.42601013183594 242.8858642578125 69.50267791748047 242.3858642578125 69.656005859375 C 241.87921142578125 69.80934143066406 241.31253051757812 70.04600524902344 240.6858673095703 70.36601257324219 L 239.99586486816406 68.46601104736328 C 240.6825408935547 67.98600769042969 241.5192108154297 67.5560073852539 242.50587463378906 67.17601013183594 C 243.48587036132812 66.78934478759766 244.29586791992188 66.59600830078125 244.9358673095703 66.59600830078125 C 247.44920349121094 66.59600830078125 248.70587158203125 67.81267547607422 248.70587158203125 70.24600982666016 L 248.70587158203125 74.94600677490234 C 248.70587158203125 75.84600830078125 248.98587036132812 76.84600830078125 249.54586791992188 77.94600677490234 L 247.00587463378906 79.02600860595703 C 246.60586547851562 78.25934600830078 246.3092041015625 77.57267761230469 246.11587524414062 76.96601104736328 C 245.23587036132812 78.29267883300781 244.12254333496094 78.95600891113281 242.77586364746094 78.95600891113281 M 243.78587341308594 76.50601196289062 C 244.42587280273438 76.50601196289062 245.1525421142578 76.1793441772461 245.9658660888672 75.52600860595703 L 245.9658660888672 73.91600799560547 C 245.11920166015625 73.7226791381836 244.4325408935547 73.62600708007812 243.90586853027344 73.62600708007812 C 242.89920043945312 73.62600708007812 242.3958740234375 74.07601165771484 242.3958740234375 74.97600555419922 C 242.3958740234375 75.4360122680664 242.5225372314453 75.8060073852539 242.77586364746094 76.08600616455078 C 243.03587341308594 76.36601257324219 243.37254333496094 76.50601196289062 243.78587341308594 76.50601196289062 ZM 255.25970458984375 76.72600555419922 C 256.08636474609375 76.72600555419922 256.49969482421875 76.35601043701172 256.49969482421875 75.61601257324219 C 256.49969482421875 75.36267852783203 256.3197021484375 75.12267303466797 255.95970153808594 74.89601135253906 C 255.59970092773438 74.67601013183594 255.15969848632812 74.45267486572266 254.6396942138672 74.22600555419922 C 254.1197052001953 74.00601196289062 253.59970092773438 73.75601196289062 253.07969665527344 73.47600555419922 C 252.55970764160156 73.19600677490234 252.1197052001953 72.8060073852539 251.75970458984375 72.3060073852539 C 251.3997039794922 71.81267547607422 251.21969604492188 71.24600982666016 251.21969604492188 70.60601043701172 C 251.21969604492188 69.53267669677734 251.6930389404297 68.59600830078125 252.6396942138672 67.79600524902344 C 253.58636474609375 66.99600982666016 254.67303466796875 66.59600830078125 255.8997039794922 66.59600830078125 C 256.4797058105469 66.59600830078125 257.0463562011719 66.66267395019531 257.5997009277344 66.79600524902344 C 258.1463623046875 66.93600463867188 258.6763610839844 67.14934539794922 259.189697265625 67.43600463867188 L 257.5797119140625 70.36601257324219 C 257.4730224609375 70.26600646972656 257.3297119140625 70.14601135253906 257.1496887207031 70.00601196289062 C 256.97637939453125 69.85934448242188 256.6463623046875 69.66934204101562 256.1596984863281 69.43600463867188 C 255.66636657714844 69.20934295654297 255.2330322265625 69.09600830078125 254.8596954345703 69.09600830078125 C 254.4863739013672 69.09600830078125 254.19970703125 69.1793441772461 253.99969482421875 69.34600830078125 C 253.79969787597656 69.5126724243164 253.69970703125 69.74267578125 253.69970703125 70.0360107421875 C 253.69970703125 70.33600616455078 253.97303771972656 70.63267517089844 254.5196990966797 70.92601013183594 C 255.07302856445312 71.22600555419922 255.67970275878906 71.49934387207031 256.3396911621094 71.74600982666016 C 256.9930419921875 71.99267578125 257.59637451171875 72.39934539794922 258.1496887207031 72.96601104736328 C 258.7030334472656 73.53267669677734 258.9797058105469 74.20934295654297 258.9797058105469 74.99600982666016 C 258.9797058105469 76.11601257324219 258.51971435546875 77.0993423461914 257.5997009277344 77.94600677490234 C 256.6796875 78.79267883300781 255.6197052001953 79.21601104736328 254.41969299316406 79.21601104736328 C 253.6463623046875 79.21601104736328 252.92970275878906 79.0493392944336 252.2696990966797 78.71601104736328 C 251.60302734375 78.38267517089844 251.12637329101562 78.04600524902344 250.83970642089844 77.70600891113281 L 250.40969848632812 77.20600891113281 L 252.29969787597656 74.99600982666016 C 252.3997039794922 75.12267303466797 252.53636169433594 75.28267669677734 252.70970153808594 75.47600555419922 C 252.8896942138672 75.66934204101562 253.2397003173828 75.92601013183594 253.75970458984375 76.24600982666016 C 254.27969360351562 76.56600952148438 254.77969360351562 76.72600555419922 255.25970458984375 76.72600555419922 ZM 262.0238952636719 67.33600616455078 L 262.0238952636719 64.72601318359375 L 265.263916015625 64.09600830078125 L 264.95391845703125 67.33600616455078 L 267.8539123535156 67.33600616455078 L 267.5939025878906 69.3060073852539 L 264.8539123535156 69.3060073852539 L 264.7339172363281 74.32601165771484 C 264.7339172363281 75.079345703125 264.8072509765625 75.579345703125 264.95391845703125 75.82601165771484 C 265.0939025878906 76.07267761230469 265.35723876953125 76.19600677490234 265.743896484375 76.19600677490234 C 266.1239013671875 76.19600677490234 266.6339111328125 76.10934448242188 267.2738952636719 75.9360122680664 L 267.4239196777344 77.6360092163086 C 266.3639221191406 78.51600646972656 265.43389892578125 78.95600891113281 264.6339111328125 78.95600891113281 C 263.83392333984375 78.95600891113281 263.1805725097656 78.66267395019531 262.6739196777344 78.07601165771484 C 262.16058349609375 77.49600982666016 261.9039001464844 76.73267364501953 261.9039001464844 75.7860107421875 L 262.0439147949219 73.09600830078125 L 262.0238952636719 69.3060073852539 L 260.3639221191406 69.3060073852539 L 260.6339111328125 67.33600616455078 L 262.0238952636719 67.33600616455078 ZM 273.9222412109375 76.50601196289062 C 274.388916015625 76.50601196289062 274.87890625 76.3860092163086 275.3922424316406 76.14601135253906 C 275.89892578125 75.906005859375 276.2989196777344 75.66600799560547 276.5922546386719 75.42601013183594 L 277.0222473144531 75.06600952148438 L 278.12225341796875 76.41600799560547 C 277.9622497558594 76.68267822265625 277.715576171875 76.99267578125 277.38226318359375 77.34600830078125 C 277.042236328125 77.6993408203125 276.7022399902344 77.99934387207031 276.36224365234375 78.24600982666016 C 276.0155944824219 78.49267578125 275.5589294433594 78.71601104736328 274.99224853515625 78.91600799560547 C 274.42559814453125 79.11601257324219 273.83892822265625 79.21601104736328 273.23223876953125 79.21601104736328 C 271.9322509765625 79.21601104736328 270.8755798339844 78.72600555419922 270.062255859375 77.74600982666016 C 269.24224853515625 76.75933837890625 268.8322448730469 75.48934173583984 268.8322448730469 73.9360122680664 C 268.8322448730469 71.98934173583984 269.4022521972656 70.27934265136719 270.542236328125 68.8060073852539 C 271.67559814453125 67.33267211914062 273.00225830078125 66.59600830078125 274.5222473144531 66.59600830078125 C 275.68890380859375 66.59600830078125 276.5989074707031 66.92267608642578 277.25225830078125 67.57601165771484 C 277.89892578125 68.23600769042969 278.2222595214844 69.156005859375 278.2222595214844 70.33600616455078 C 278.2222595214844 71.04267883300781 278.1022644042969 71.8426742553711 277.86224365234375 72.73600769042969 L 277.38226318359375 73.24600982666016 L 271.38226318359375 73.79600524902344 C 271.65557861328125 75.60267639160156 272.50225830078125 76.50601196289062 273.9222412109375 76.50601196289062 M 273.9222412109375 69.06600952148438 C 273.2222595214844 69.06600952148438 272.63226318359375 69.3493423461914 272.1522521972656 69.91600799560547 C 271.6722412109375 70.48934173583984 271.3922424316406 71.21601104736328 271.312255859375 72.09600830078125 L 275.3922424316406 71.58600616455078 C 275.43890380859375 71.21934509277344 275.4622497558594 70.91600799560547 275.4622497558594 70.67601013183594 C 275.4622497558594 69.60267639160156 274.94891357421875 69.06600952148438 273.9222412109375 69.06600952148438 Z" transform="matrix(0.5230799913406372, 0, 0, 0.5230799913406372, 52.22954559326172, 8.02878189086914)" style="fill: rgb(255, 255, 255); white-space: pre; color: rgb(51, 51, 51);"/></svg>